<?xml version="1.0" encoding="utf-8"?>
<!-- Generator: Adobe Illustrator 24.1.0, SVG Export Plug-In . SVG Version: 6.00 Build 0)  -->
<svg version="1.1" id="レイヤー_1" xmlns="http://www.w3.org/2000/svg" xmlns:xlink="http://www.w3.org/1999/xlink" x="0px"
	 y="0px" viewBox="0 0 47 25.7" style="enable-background:new 0 0 47 25.7;" xml:space="preserve">
<style type="text/css">
	.st0{fill:#FFFFFF;}
</style>
<g id="レイヤー_2_1_">
	<g id="レイヤー_1-2">
		<g id="グループ_200">
			<g id="グループ_166">
				<path id="パス_34" class="st0" d="M27.4,12.3c0-0.2,0.1-0.4,0.1-0.6c0-0.1,0-0.2,0-0.2c0-0.1,0-0.3,0-0.4
					c-0.1-0.1-0.1-0.3-0.1-0.4c0,0-0.1-0.2-0.1-0.2l-0.1-0.1C27.1,10.1,27,10,26.9,10c-0.1,0-0.2,0-0.4,0c-0.2,0.1-0.7,0.2-0.7,0.2
					l-0.5,0.3l-0.3,0.2c-0.1,0.1-0.1,0.2-0.2,0.3L24.9,11c0,0.2-0.1,0.3-0.2,0.3l0,0v0.1h-0.1c-0.1,0.1-0.2,0.3-0.3,0.4v0.1h-0.1
					c0,0.1-0.1,0.2-0.2,0.2h0l-0.3,0.5l-0.1,0.2c0,0,0-0.2-0.1-0.2l0,0c0,0.1,0.1-0.2,0-0.2v-0.2v-0.1C23.3,12.1,23.2,12,23,12
					l-0.1,0.2h-0.1c0,0,0,0.1-0.1,0.1c0,0,0,0.1,0,0.1c0.1,0.1,0.1,0.1,0.1,0.2l0,0c0,0.1,0,0.1,0,0.2c0,0,0,0.1,0,0.1
					c0.1,0.1,0.1,0.2,0.1,0.3c0,0,0,0.1,0,0.1s0,0.1,0,0.1c0,0.2,0.1,0.4,0.1,0.6c0,0.1,0,0.1,0,0.2c0,0,0,0.1,0,0.1
					c0.1,0.1,0.1,0.1,0.1,0.2v0.1c0.1,0,0.1,0,0.1,0.1h0.1h0.2l0-0.2l0.2-0.3c0-0.1,0.1-0.3,0.2-0.3v-0.1c0-0.2,0.1-0.4,0.1-0.5
					v-0.2c0.1-0.1,0.1-0.2,0.1-0.3c0-0.1,0-0.1,0.1-0.2c0,0,0.1-0.1,0.1-0.2c0-0.1,0-0.3,0.1-0.4c0,0,0.1,0,0.1-0.1
					c0-0.1,0.1-0.1,0.1-0.2c0.1-0.1,0.2-0.2,0.3-0.3v-0.1c0.1-0.2,0.2-0.3,0.4-0.5c0.2-0.2,0.3-0.3,0.5-0.4c0.2,0,0.3-0.1,0.5-0.1
					c0.1,0,0.3,0,0.4,0.1h0.1c0.1,0.1,0.2,0.1,0.3,0.2l0,0V11l0.1,0.2v0.4c-0.1,0.3-0.1,0.6-0.3,0.9l0,0l0,0c0,0-0.1,0.1-0.1,0.1
					h-0.1l0,0l-0.2,0.2l0,0c-0.1,0.1-0.2,0.1-0.3,0.1c0,0-0.1,0-0.1,0l0,0v0.1c0,0-0.1,0.1-0.1,0.1l-0.2,0.1l-0.2,0.2L25,13.5
					l-0.3,0.2l-0.2,0.1c0,0-0.2,0.1-0.2,0.2c0.1,0.1,0.2,0.2,0.2,0.3l0.1,0.1h0.1c0,0,0.1,0,0.1-0.1c0.1-0.1,0.2-0.2,0.2-0.2
					c0.1,0,0.1-0.1,0.2-0.2l0-0.1l0,0c0-0.1,0.1-0.1,0.2-0.1c0.1-0.1,0.2-0.1,0.3-0.2l0,0l0.3-0.2h0c0,0,0.1-0.1,0.1-0.1h0.1
					c0.1,0,0.2,0.1,0.3,0.2c0.1,0.1,0.1,0.1,0.1,0.1l0.1,0.3l0,0c0,0.1,0,0.1,0,0.2c0,0.1,0,0.1,0,0.2l0,0l-0.1,0.3
					c0.1,0.1,0.1,0.1,0,0.2l0,0l0,0c-0.1,0.1-0.2,0.1-0.3,0.1s0,0,0,0l0,0.1h-0.1c-0.1,0-0.1,0.1-0.2,0.1c-0.2,0-0.3,0.1-0.5,0.2
					c-0.1,0-0.2,0.1-0.3,0.1h0c0,0-0.1,0.1-0.1,0.1c-0.1,0.1-0.2,0.1-0.3,0.2c-0.1,0.1-0.2,0.2-0.3,0.3c0,0,0,0.1,0,0.1v0
					c0,0,0,0.1,0,0.1s0,0.3,0.1,0.4l0,0c0,0,0.1,0,0.1,0c0.1-0.2,0.2-0.4,0.3-0.5l0.1-0.1l0.1-0.1c0.2-0.2,0.4-0.3,0.6-0.4
					c0.2-0.1,0.4-0.2,0.5-0.4c0-0.1,0.4-0.2,0.4-0.2l0.1-0.2l0,0c0,0,0-0.1,0-0.1L27,14.6v-0.1l0,0v-0.1c0.1-0.3,0.1-0.6,0.2-0.9
					s0.1-0.6,0.2-0.9v-0.1C27.4,12.5,27.4,12.4,27.4,12.3z"/>
				<path id="パス_35" class="st0" d="M32.2,6.4h-0.1c-0.1,0-0.3,0.1-0.4,0.1h-0.1l0,0c0,0-0.1,0-0.1,0.1h-0.1
					c-0.1,0.1-0.2,0.1-0.3,0.2c-0.1,0-0.1,0-0.2,0.1l-0.1,0.1h-0.1h-0.2c-0.1,0-0.2,0.1-0.2,0.1l0,0h-0.1L30.3,7h-0.1
					c-0.1,0-0.2,0.1-0.3,0.1c-0.1,0-0.2,0-0.3,0.1l0,0l0,0l-0.4,0.1c-0.2,0.1-0.5,0.2-0.7,0.3l0,0l-0.2,0.1
					c-0.1,0.1-0.1,0.1-0.2,0.2l-0.5,0.2l-0.2,0.1l-0.6,0.3h-0.1c-0.1,0-0.5,0.2-0.5,0.2H26c-0.1,0-0.2,0.1-0.4,0.1h-0.1l-0.1,0.1
					h-0.2c0,0-0.1,0-0.1,0h-0.2c-0.1,0-0.1,0-0.2,0V9V8.9c-0.1-0.2-0.1-0.2-0.1-0.3V8.5v0.3h0.1l0,0c0.1-0.1,0.1-0.2,0.2-0.3l0,0
					c0.1,0,0.2-0.1,0.2-0.2c0,0,0.1-0.1,0.1-0.1c0.1-0.1,0.1-0.1,0.2-0.2c0,0,0.1-0.1,0.1-0.1c0,0,0,0,0.1,0c0-0.1,0.1-0.1,0.2-0.2
					l0,0l0,0l0,0l-0.1-0.2h-0.1c-0.1,0-0.3,0.1-0.4,0.2h-0.1c0,0-0.1,0-0.1,0.1l0,0l-0.7,0.3c-0.1,0,0-0.2-0.1-0.3s1-0.6,0.9-0.8
					s-0.9,0.3-0.9,0.3l0.1-0.2c0-0.1-0.1-0.2-0.2-0.2h-0.1V6.8l0,0c0-0.1,0-0.2,0-0.3c0,0,0,0,0-0.1c0,0,0-0.1,0-0.1
					c0-0.1,0-0.1,0-0.2c0-0.1,0-0.3,0-0.4c0-0.1,0-0.2,0-0.2c0-0.1,0-0.2,0-0.3c0-0.1,0-0.1,0-0.2c0-0.3,0.1-0.5,0.3-0.7l0,0l0,0
					c0.1,0,0.2,0,0.2,0l0,0h0.1H25c0.1-0.1,0-0.4,0-0.4l0,0c-0.1,0-0.1-0.1-0.2-0.1h-0.3L24.2,4V3.9c0,0,0-0.1-0.1-0.1
					C24.1,3.7,24,3.7,24,3.6c0-0.1,0-0.1,0-0.2c0-0.1,0-0.1,0-0.1V2.9c0-0.2,0-0.3,0-0.5l0,0c0-0.1,0-0.2,0-0.2
					c-0.1-0.1-0.1-0.3,0-0.5c0.1-0.1,0.2-0.2,0.3-0.3c0,0,0.1,0,0.1-0.1c0.1-0.1,0.2-0.2,0.3-0.2h0.1c0-0.1,0.2-0.2,0.3-0.2
					c0,0,0,0,0,0h0.1c0.1-0.1,0.2-0.1,0.2-0.1c0.1,0,0.3-0.1,0.4-0.1L26,0.6h0c0.1,0,0.1,0,0.2,0.1v0.1h0.1c0.1,0,0.2,0.1,0.3,0.2
					l0,0l0,0c0,0,0,0.1,0,0.1l0,0l0,0v0.2c0,0.2,0,0.4,0,0.6V2c0,0.2,0,0.4,0,0.5c0,0,0,0.1,0,0.1c0,0.1,0,0.3,0,0.4
					c0,0.1,0,0.1,0,0.2c0,0,0,0.1,0,0.1c0,0,0,0,0,0.1c0,0.1,0,0.2-0.1,0.3l0,0v0.1c0,0,0,0.1,0,0.1c0,0.1,0,0.2-0.1,0.2
					c-0.1,0.1-0.1,0.2-0.1,0.4c0,0.1,0,0.2-0.1,0.3c0,0.1,0,0.3-0.1,0.4L26,5.5l0,0c0,0.2-0.1,0.5-0.2,0.6c0,0,0,0.1,0,0.1
					c0,0.1,0,0.2-0.1,0.2c0,0.1,0,0.2,0.1,0.2l0,0c0.1,0,0.1,0,0.2,0l0,0l0,0V6.7c0.1-0.2,0.2-0.3,0.2-0.5s0-0.1,0-0.1
					c0-0.1,0.1-0.2,0.2-0.3c0-0.1,0-0.2,0-0.3V5.3c0.1-0.1,0.1-0.2,0.1-0.3c0-0.1,0-0.2,0.1-0.3l0-0.1V4.4c0,0,0.1-0.1,0.1-0.2
					c0-0.3,0.1-0.5,0.2-0.8c0,0,0-0.1,0-0.1c0-0.1,0-0.2,0.1-0.3V2.8V2.6c0-0.1,0-0.2,0-0.4c0-0.1,0-0.3,0-0.4c0-0.2,0-0.4,0-0.6
					V1.2c0,0-0.2-0.9-0.7-1.1H26c0,0-0.1,0-0.1,0l0,0l0,0c-0.2,0-1.2,0.5-1.6,0.6c-0.1,0-0.2-0.1-0.3-0.1l-0.1,0l0,0
					c0,0-0.1-0.1-0.1-0.1c0,0-0.1-0.1-0.1-0.1c-0.1,0-0.2,0.1-0.2,0.1c0,0,0,0.1-0.1,0.1l0,0.1v0.1c0,0.1,0,0.2,0,0.3
					c-0.1,0.1-0.1,0.3-0.1,0.5v0.1h-0.1c0,0-0.1,0-0.1,0.1v0.1c0,0.1-0.1,0.1-0.2,0.2c0,0-0.1,0-0.1,0.1l-0.2,0.2
					c-0.1,0.1-0.2,0.2-0.3,0.3l0,0c0,0-0.1,0.1-0.1,0.1c0,0,0,0,0,0c0,0.1-0.1,0.1-0.2,0.2c0,0,0,0.1,0,0.1h0V3l0,0.1l-0.6,0.7
					c-0.1,0.2-0.2,0.3-0.4,0.4l0,0c0,0.1,0,0.2,0,0.2c0.1,0.1,0.1,0.1,0.2,0.2l0,0c0,0,0.1,0,0.1,0h0.1c0,0,0.1-0.1,0.1-0.1
					c0.1-0.1,0.1-0.1,0.2-0.2C21.7,4.2,21.8,4,22,3.9l0.2-0.2c0,0,0.2-0.3,0.3-0.4c0.2-0.3,0.4-0.5,0.6-0.8l-0.1,0l0.1,0.1
					c0,0,0.1,0,0.1,0h0l0,0c0,0.1,0.1,0.2,0.1,0.2h0.1l0.1,1l0,0L23.5,4l0,0c0,0.1-0.1,0.2-0.2,0.3l0,0c-0.2,0.1-0.3,0.3-0.4,0.5
					c-0.1,0-0.1,0.1-0.2,0.1l0,0c-0.1,0.1-0.2,0.2-0.2,0.3l-0.2,0.3c-0.1,0.1-0.3,0.2-0.4,0.3c-0.1,0.1-0.2,0.1-0.4,0.2L21.4,6l0,0
					c0,0.1,0,0.1,0,0.2c0,0.1,0.1,0.1,0.1,0.2l0,0l0.1,0.1h0.1l0,0h0.2c0.1,0,0.1-0.1,0.2-0.1l0.1-0.1c0,0,0-0.1,0-0.1
					c0-0.1,0.1-0.2,0.2-0.2c0,0,0.1,0,0.1,0.1c0-0.1,0.1-0.1,0.1-0.2l0,0c0,0,0-0.1,0.1-0.1l0,0c0-0.1,0.1-0.1,0.2-0.2
					c0-0.1,0-0.3,0.1-0.3l0,0h0.3h0c0,0,0.1,0.1,0.1,0.1c0.1,0.1,0.2,0.2,0.3,0.3v0.1c0,0.3,0,0.5,0,0.8c0,0,0,0.1,0,0.2
					c0,0.1,0,0.2,0,0.3c0,0,0,0.1,0,0.2c0,0,0,0.1,0,0.1c0,0.1-0.1,0.2-0.1,0.3c0,0.1-0.1,0.1-0.1,0.1l-0.1,0.1h-0.1h0v0.4h-0.1l0,0
					c0,0.1-0.1,0.1-0.1,0.1h-0.2c-0.1,0-0.1,0-0.1,0.1l-0.1,0.1h-0.1c-0.1,0-0.2,0.1-0.2,0.1c-0.1,0.1-0.2,0.1-0.2,0.1
					c0,0.1-0.2,0.1-0.3,0.2s0,0.2,0,0.4c0.1,0,0.1,0,0.2,0l1.4-0.6l0.3,0.1c0,0-0.1,0-0.2,0.1l-1.5,0.7l0,0c-0.1,0.1-0.1,0.2,0,0.3
					h0.1l0.2,0.1c-0.1,0.2,1.6-0.9,1.7-0.6l0.1,0.3c-0.4,0.2-1.2,0.7-1.2,0.7l-0.3,0.1l-0.4,0.2c0,0-0.1,0.1-0.1,0.1L22,10.6
					c0,0.1-0.1,0.2-0.2,0.2h0L21.6,11l-0.2,0.1c-0.1,0-0.1,0.1-0.2,0.1c-0.3,0.2-0.7,0.4-1,0.6L19.9,12l-0.1,0.1h-0.1
					c0,0-0.2,0.2-0.2,0.2l-0.2,0.2l0,0l-0.2,0.1c0,0,0,0.1-0.1,0.1l-0.4,0.5l0,0c0,0-0.1,0.1-0.1,0.1v0.1c0,0.1,0,0.2,0,0.2
					c0,0.1,0.1,0.1,0.1,0.2c0,0,0.1,0,0.1,0.1h0.2c0.3-0.3,0.5-0.6,0.8-0.9c0.1-0.1,0.2-0.2,0.3-0.3l0.9-0.7l0.1-0.1
					c0.1-0.1,0.2-0.1,0.3-0.2c0.1-0.1,0.3-0.1,0.4-0.2c0.1-0.1,0.1-0.1,0.2-0.1l0,0c0.1-0.1,0.1-0.1,0.2-0.1c0.1,0,0.1,0,0.1-0.1
					l0.1-0.1c0.1,0,0.1,0,0.2-0.1c0.1-0.1,0.2-0.1,0.3-0.1c0.1,0,0.1-0.1,0.2-0.1l0.3-0.2l0,0l0.1-0.1l0.2-0.1l0.3-0.2
					c0.2-0.1,0.3-0.2,0.5-0.2c0,0,0.1-0.1,0.2-0.1l0,0c0,0,0.1,0,0.1-0.1c0-0.1,0.1-0.1,0.2-0.1h0.1c0,0,0.1,0,0.1,0.1l0,0l0.4-0.2
					c0.4-0.2,0.9-0.3,0.9-0.4l0,0l0,0l0.1-0.1c0.1,0,0.1-0.1,0.2-0.1h0.1L27,9l0.1-0.1h0.1c0.1,0,0.1,0,0.1-0.1l0.2-0.1l0.1-0.1
					c0.1-0.1,0.2-0.1,0.3-0.2l0.1-0.1c0.1-0.1,0.2-0.1,0.3-0.1h0.1l0.2-0.1c0.1-0.1,0.2-0.1,0.2-0.2h0.2l0.2-0.1l0.4-0.2
					c0.1-0.1,0.2-0.2,0.3-0.2c0.1,0,0.2-0.1,0.4-0.1l0.2-0.1c0.1,0,0.1-0.1,0.2-0.1C31,7.1,31.2,7,31.4,7c0,0,0.4-0.2,0.6-0.3
					c0.1-0.1,0.1-0.1,0.2-0.2V6.4z"/>
			</g>
			<g id="グループ_199">
				<path id="パス_36" class="st0" d="M19.5,17.9c0,0-0.1-0.1-0.2-0.1c-0.2,0-0.3-0.1-0.5-0.2l0,0l-0.2-0.1l0,0
					c-0.1,0-0.2,0-0.3-0.1h-0.1l0,0l-0.2-0.1c-0.2,0-0.3-0.1-0.4-0.1L17.3,17c-0.1,0-0.2-0.1-0.3-0.1c-0.1,0-0.1-0.1-0.2-0.1
					c-0.2-0.1-0.4-0.2-0.6-0.3c-0.1,0-0.2-0.1-0.3-0.1c-0.1,0-0.4-0.2-0.4-0.2l0,0c-0.2-0.1-0.4-0.2-0.6-0.3c-0.1,0-0.1,0-0.1,0
					c-0.1,0-0.2,0-0.2-0.1h-0.1h-0.1c-0.1,0-0.2-0.2-0.3-0.2l-0.4-0.2c0,0-0.4-0.2-0.6-0.3c-0.1-0.1-0.3-0.2-0.4-0.3l0,0
					c-0.1,0-0.1-0.1-0.2-0.1h-0.1l-0.2-0.1c-0.1,0-0.2-0.1-0.2-0.1c0,0-0.1-0.1-0.1-0.1L12.1,14c0-0.1-0.1-0.1-0.2-0.1
					c-0.1,0-0.2-0.1-0.2-0.1c0,0,0-0.1,0-0.1c0,0-0.1,0-0.1-0.1l0,0v-0.5l0.1-0.1c0-0.1,0-0.2,0.1-0.3c0.1-0.1,0.1-0.3,0.2-0.4
					c0,0,0.3-0.9,0.3-0.9l0,0c0-0.1,0-0.3,0.1-0.4c0-0.1,0.1-0.1,0.1-0.2v-0.1l0,0c0.1-0.1,0-0.1,0-0.2v-0.2c0-0.1,0-0.2,0-0.2
					c0,0,0-0.1,0-0.1l0,0c-0.1-0.1-0.1-0.2,0-0.2l0,0c0,0,0-0.1,0-0.1l0,0c-0.1,0-0.1-0.1-0.1-0.1h-0.2c0,0-0.1,0-0.1,0h-0.1
					l-0.1,0.1l-0.1,0.1l0.1,0.1l-0.1,0.1c-0.1,0-0.1,0.1-0.2,0.1v0.1h-0.1c-0.2,0-0.2,0-0.3-0.2l0,0c-0.1,0-0.1,0-0.2-0.1l-0.1-0.1
					V9.5c0-0.1-0.3,0.2-0.3,0.1c0,0-0.1,0-0.1-0.1l-0.2-0.2V9.3c0-0.1,0.2-0.3,0.2-0.4c0,0,0-0.1,0-0.1c0,0,0.2-0.1,0.2-0.2l0,0
					l0.1-0.1c0.1,0,0.1-0.1,0.2-0.2c0-0.1,0.1-0.1,0.2-0.2C11,8.1,11.1,8,11.1,8l0.1-0.1c0-0.1,0.1-0.1,0.1-0.1c0,0,0.1-0.1,0.1-0.1
					l0.1-0.1c0.1,0,0.1-0.1,0.1-0.1c0,0,0.1-0.1,0.1-0.1l0,0l0.1-0.1c0,0,0,0,0.1-0.1c0-0.1,0-0.1,0.1-0.2L12,6.9c0,0,0-0.1,0.1-0.1
					l0.3-0.3c0,0,0.1-0.1,0.1-0.1h0.1c0,0,0.1-0.1,0.1-0.1l0,0c0.1,0,0.2,0.1,0.3,0.2l0.1,0.1c0,0,0.5,0.7,0.6,0.8l0.1,0.1l0.1,0.1
					l0,0l0.4,0.2l0,0c0-0.1,0-0.1,0-0.2h-0.1V7.4l-0.1-0.1c0-0.1-0.1-0.3-0.2-0.4l0,0c-0.1,0-0.2-0.2-0.1-0.3c0,0,0-0.1-0.1-0.1
					h-0.1l0,0l-0.3-0.7l-0.1-0.1l0,0h-0.1c0,0-0.1,0.1-0.1,0.1l-0.1,0.1c-0.1,0-0.1,0-0.1,0.1l-0.2,0c-0.1,0.2-0.1,0.2-0.4,0.3l0,0
					L12,6.5l0,0c-0.1,0.1-0.1,0.2-0.2,0.3c-0.1,0.1-0.1,0.1-0.2,0.2l-0.1,0.1c-0.1,0.1-0.2,0.3-0.3,0.3L11,7.6
					c-0.1,0.1-0.2,0.2-0.3,0.3c-0.1,0.1-0.1,0.2-0.1,0.2l-0.1,0.2L10,8.8c0-0.1-0.6,0.7-0.7,0.6l0.2-0.7c0,0,0-0.1,0.3-0.5L10,7.8
					l0.2-0.5c0,0,0,0,0-0.1c0-0.1,0.1-0.1,0.1-0.2c0,0,0,0,0-0.1c0-0.1,0-0.2,0.1-0.2c0,0,0,0,0-0.1V6.6c0-0.1,0-0.1,0.1-0.2
					c0.2-0.5,0.4-0.9,0.6-1.3V5c0-0.1,0.1-0.2,0.2-0.2c0,0,0,0,0-0.1c0-0.1,0-0.1,0.1-0.2c0,0,0,0,0-0.1c0-0.1,0-0.1,0.1-0.2l0,0
					c0,0,0-0.1,0-0.2l0,0L11.6,4c0-0.1,0-0.2,0.1-0.2c0.1-0.2,0.2-0.3,0.4-0.4V3.2c0-0.1,0-0.1,0-0.2l0,0c0,0-0.1-0.1-0.1-0.2
					c0,0-0.1,0-0.1,0l0,0c-0.1,0-0.1,0.1-0.2,0.1c0,0,0,0.1-0.1,0.1c0,0,0,0.1,0,0.1c0,0.1-0.1,0.2-0.2,0.2l0,0
					c-0.1,0.2-0.2,0.4-0.3,0.5C11.1,4,11,4,11,4.1c0,0.2-0.1,0.5-0.2,0.7l-0.2,0.6c-0.1,0-0.1,0.1-0.1,0.1c0,0-0.1,0.1-0.1,0.1l0,0
					l0,0l-0.2,0.1C10.1,5.7,10,5.7,9.9,5.7H9.6l0,0L9.5,5.6c-0.1,0-0.1-0.1-0.2-0.1l0,0V5.2l0,0C9.4,5,9.4,4.8,9.5,4.6
					c0.1-0.1,0.1-0.3,0.2-0.4l0.8-1.4V2.8c0-0.1,0-0.1,0.1-0.2c0-0.1,0.1-0.1,0.1-0.2c0-0.2,0-0.3,0.1-0.5c0-0.1,0-0.2,0-0.3
					c0-0.1,0.1-0.2,0.1-0.3c0,0,0,0,0-0.1l-0.2-0.1h-0.1l0,0l-0.1,0.1c0,0.1,0,0.1,0,0.2l0,0c-0.1,0.1-0.1,0.1-0.1,0.2
					c0,0.1-0.1,0.2-0.2,0.2C10.1,2.1,10,2.2,10,2.3c0,0.1-0.1,0.2-0.1,0.2l0,0l0,0c0,0,0,0.1-0.1,0.1c0,0,0,0.1,0,0.1
					C9.8,2.9,9.7,3.1,9.6,3.2L9.5,3.4C9.4,3.5,9.4,3.7,9.4,3.8c0,0.1-0.1,0.3-0.2,0.4c0,0,0,0.1,0,0.1c0,0.1-0.1,0.2-0.1,0.3
					C9,4.7,8.7,5.2,8.7,5.3c0,0-0.1,0-0.1,0.1C8.5,5.6,8.3,5.8,8.1,6v0.3c0.1,0.1,0.2,0.1,0.2,0.1h0.2l0,0h0.1c0.1,0,0.1,0,0.2-0.1
					l0,0l0.6-0.2l0.1,0.1l0,0c0.1,0,0.1,0.1,0.1,0.1l0,0l0,0c0,0.2,0,0.4-0.1,0.6c0,0.1,0,0.1,0,0.2c0,0.1,0,0.1,0,0.2
					C9.5,7.5,9.4,7.6,9.4,7.7c0,0.1-0.1,0.1-0.1,0.2c0,0,0,0.1,0,0.1c0,0.1,0,0.2-0.1,0.2c0,0-0.2,0.5-0.2,0.7
					c0,0.2-0.1,0.3-0.2,0.4C8.8,9.5,8.7,9.5,8.7,9.7c0,0.1-0.1,0.5-0.2,0.5l0,0c0,0.1,0,0.1,0,0.2h0.1l0.2,0.1h0.1c0,0,0.1,0,0.1,0
					s0.1,0,0.1,0h0.1c0,0,0.4-0.2,0.4-0.2c0.1,0,0.1,0,0.2,0h0.1l0,0c0.1,0,0.1,0,0.1,0.1l0.1,0.1H10H10l-0.2,0.4v0.1
					c0,0,0,0.1,0,0.1c0,0.4-0.3,0.6-0.5,0.9c0,0,0,0.1,0,0.1c0,0.1,0,0.2,0,0.2c0,0-0.1,0.1-0.1,0.2c0,0.1-0.1,0.2-0.1,0.3
					c0,0,0,0,0,0.1l0,0c0,0.1,0,0.1-0.1,0.1v0.3l0.1,0.1h0.1l0.1-0.1l0.1-0.1c0,0,0-0.1,0-0.1l0,0l0,0h0.1c0.1,0,0.3,0,0.4,0
					c0.1,0,0.1,0.1,0.1,0.1l0,0l0,0c0.1,0,0.2,0,0.2,0.1l0,0c0.1,0,0.1,0,0.2,0.1c0,0,0.1,0.1,0.1,0.1l0,0l0.1,0.1l-0.1,0.1
					c0,0.1,0,0.1-0.1,0.2c0,0.1,0,0.2-0.1,0.2l-0.1,0.1c-0.1,0.1-0.1,0.1-0.1,0.2l-0.1,0.2c0,0.1-0.1,0.2-0.1,0.3c0,0,0,0.1,0,0.1
					v0.1c0,0.2-0.1,0.3-0.2,0.4l-0.1,0.2c0,0-0.2,0.3-0.2,0.4c0,0.1-0.1,0.1-0.1,0.2c0,0.1-0.1,0.2-0.1,0.2
					c-0.1,0.1-0.1,0.1-0.1,0.2h0.1l0.2-0.2c0.1-0.1,0.4-0.5,0.4-0.5c0.1-0.1,0.1-0.2,0.2-0.3c0.1-0.1,0.1-0.2,0.2-0.3
					c0-0.1,0.5-0.9,0.6-1l0.1-0.1c0.1-0.1,0.2-0.2,0.3-0.2l0,0l0,0c0,0,0.1-0.1,0.1-0.1l0,0c0.1,0,0.3,0,0.4,0.1
					c0.1,0,0.1,0.1,0.2,0.1l0.1,0.1l0.1,0.1c0.1,0,0.1,0.1,0.2,0.1l0,0c0,0,0.1,0,0.1,0.1c0.1,0.1,0.2,0.1,0.2,0.2
					c0.1,0.1,0.2,0.2,0.4,0.3l0,0c0.1,0,0.2,0.1,0.3,0.2c0.1,0.1,0.1,0.1,0.2,0.1l0.1,0.1l0,0h0.1c0.1,0,0.1,0.1,0.1,0.1
					c0,0,0,0,0.1,0.1l0.2,0.1c0,0,0.1,0.1,0.1,0.1l0.2,0.1c0,0,0.1,0.1,0.1,0.1l0.1,0.1l0.1,0.1h0.1H15l0.1,0.1
					c0.1,0,1.4,0.6,1.6,0.7l0.1,0.1c0.1,0.1,0.1,0.1,0.2,0.1h0l0,0c0.1,0,0.1,0.1,0.2,0.1c0.1,0,0.2,0.1,0.3,0.1l0,0
					c0.3,0.1,0.6,0.2,0.9,0.2h0.1h0.1c0.1,0,0.4,0.1,0.5,0.1h0.1L19.5,17.9z M11.5,12.2L11.5,12.2c-0.1,0.1-0.1,0.1-0.1,0.2
					c0,0.1-0.1,0.1-0.1,0.2c0,0.1,0,0.2-0.1,0.3c0,0.1,0,0.2,0,0.3L10.7,13c-0.1,0-0.2-0.1-0.3-0.2h-0.1c0,0-0.1,0-0.1,0l0,0
					c-0.2-0.1-0.3-0.2-0.5-0.3c0,0,0.1-0.3,0.1-0.3L10,12c0.2-0.6,0.4-1.1,0.8-1.7l0,0H11l0.1-0.1l0.9,0.1v0.2
					c0,0.1-0.2,0.7-0.3,0.8l-0.1,0.3L11.6,12V12C11.6,12.1,11.6,12.1,11.5,12.2L11.5,12.2z"/>
			</g>
			<g id="グループ_168">
				<path id="パス_39" class="st0" d="M4.4,20L4.4,20L4.4,20l-0.1-0.1v-0.3c0-0.3-0.1-0.7-0.1-1c0,0,0-0.1,0-0.1
					c0-0.1,0-0.1,0-0.2c0-0.2,0-0.5,0-0.7c0,0,0-0.1,0-0.2c0,0,0-0.1,0-0.1l0,0c0,0,0-0.1,0-0.1c0,0,0.1-1.4,0.1-1.5
					s0.1-0.4,0.1-0.6s0-0.1,0-0.2c0-0.1,0-0.3,0-0.4c0-0.1,0.1-1.5,0.1-1.6c0-0.1,0-0.2,0-0.4c0-0.1,0-0.3,0-0.4c0-0.2,0-0.3,0-0.5
					c0-0.1,0-0.1,0-0.1c0-0.1,0-0.2,0-0.2c0-0.1,0-0.2,0-0.4c0-0.2,0-0.4,0-0.5c0-0.2,0-0.3,0-0.5c0-0.1,0-0.1,0-0.2V9.5L3.9,9.4
					c0,0-0.1,0-0.1,0.1c-0.2,0.2-0.3,0.4-0.4,0.6c0,0.1-0.1,0.2-0.1,0.2c0,0-0.1,0.1-0.1,0.2v0.1c-0.1,0.1-0.2,0.3-0.2,0.4
					c-0.1,0.1-0.1,0.2-0.2,0.4l-0.5,0.9c0,0.1-0.1,0.1-0.1,0.2H2l0,0c0,0.1-0.1,0.1-0.1,0.2c0,0.1-0.2,0.5-0.2,0.5l-0.1,0.2
					l-0.1,0.1l0,0c0,0.1-0.2,0.4-0.2,0.4c0,0.1-0.1,0.2-0.1,0.4c0,0-0.5,1.2-0.5,1.2L0,17.9c0,0,0.9-3.1,0.9-3.1s0.5-1.4,0.5-1.4
					l0.1-0.3V13c0.1-0.1,0.1-0.2,0.1-0.3c0,0,0-0.1,0.1-0.1l0.1-0.2l0.1-0.3C1.9,12,2,11.8,2.1,11.7c0-0.1,0.1-0.1,0.1-0.2
					c0.1-0.1,0.1-0.2,0.2-0.4c0,0,0.2-0.3,0.2-0.4l0.2-0.4C2.9,10.2,3,9.9,3.1,9.9c0-0.1,0.1-0.1,0.1-0.2c0.1,0,0.1-0.1,0.1-0.2
					c0-0.2,0.3-0.6,0.3-0.7c0.1-0.1,0.2-0.1,0.2-0.2c0.1-0.4,0.3-0.7,0.5-1c0.1-0.1,0.2-0.2,0.2-0.3c0-0.1,0.3-0.5,0.3-0.5
					c0,0,0.1-0.1,0.1-0.2c0,0,0,0,0-0.1l0.2-0.3c0.2-0.2,0.3-0.5,0.5-0.8c0,0,0.1-0.1,0.1-0.1c0,0,0.5-0.8,0.5-0.8
					C6.5,4.2,6.6,4,6.7,3.8l0.1-0.2C6.9,3.4,7,3.3,7,3.2c0-0.1,0.1-0.2,0.2-0.3c0.1,0,0.3-0.1,0.4-0.2c0,0,0.1,0,0.1,0h0.1l0,0
					c0,0,0,0.1,0.1,0.1c0,0.1,0,0.1,0,0.2L7.7,3.1c0,0-0.1,0.1-0.1,0.1l0,0c0,0.1,0,0.1-0.1,0.1L7.5,3.5c0,0,0,0.1-0.1,0.1
					c0,0.1-0.1,0.1-0.1,0.2c0,0.1-0.6,0.7-0.6,0.8S5.5,6.4,5.5,6.5c0,0-0.1,0.1-0.1,0.1L5.3,6.8L5.2,6.9L5.1,7.1
					c0,0.1-0.1,0.1-0.1,0.2L4.9,7.4v0.1C4.8,7.5,4.8,7.6,4.8,7.7c-0.1,0-0.1,0.1-0.2,0.2c0,0.1-0.1,0.2-0.2,0.3
					C4.4,8.2,4.3,8.3,4.3,8.4v0.1l0.1,0.1l0.3,0.4c0,0,0.2,1.4,0.2,1.4s0,0.2,0,0.3s0,0.9,0,0.9s0,0.2,0,0.2l0,0
					c0,0.1,0,1.5-0.1,1.6s0,0.5,0,0.5c0,0.1,0,0.1,0,0.2c0,0.1,0,0.1,0,0.2l-0.2,1.3c0,0.1,0,0.3,0,0.4c0,0.2,0,0.3,0,0.5
					c-0.1,0.3-0.1,0.5-0.1,0.8c0,0-0.1,1.2-0.1,1.2c0,0,0,0,0,0c0,0.1,0,0.2,0,0.4v0.5c0,0.1,0,0.2,0,0.3C4.6,19.6,4.4,20,4.4,20z"
					/>
			</g>
			<g id="グループ_169">
				<path id="パス_40" class="st0" d="M40,9.6L40,9.6h-0.2c0,0,0,0,0-0.1V9.5h-0.1l-0.1-0.1h-0.1l-0.1-0.2c-0.1,0-0.4-0.4-0.4-0.4
					l0,0c0,0,0-0.1,0-0.1c-0.1-0.1-0.2-0.3-0.2-0.4c-0.1-0.1-0.2-0.2-0.3-0.3c0,0-0.2-0.4-0.2-0.4c0,0-0.1-0.1-0.1-0.1
					c-0.1-0.4-0.3-0.8-0.7-1h-0.2c-0.1,0-0.2,0.1-0.3,0.1c-0.2,0.1-0.4,0.2-0.6,0.3c-0.3,0.1-0.5,0.2-0.7,0.3
					c-0.2,0-0.4,0.1-0.5,0.1h-0.2h-0.2c0,0,0-0.1-0.1-0.1c0,0,0-0.1,0-0.2c0-0.1,0-0.1,0-0.2V6.7c0,0,0.1,0,0.1,0
					c0,0,0.6-0.1,0.6-0.1l0,0h0.3L36,6.4l0.6-0.2c0.1-0.1,0.6-0.4,0.6-0.4c0.1-0.1,0.1-0.2,0.1-0.3l0,0c0,0,0-0.1,0-0.1
					c0-0.1,0-0.3-0.1-0.4c0,0,0-0.1,0-0.1c0-0.1,0-0.1,0-0.2c0-0.1-0.1-0.2-0.2-0.3V4.4c0-0.1-0.1-0.2-0.2-0.2h-0.1l-0.1-0.1
					c0,0-0.4,0.2-0.4,0.2c-0.1,0-0.3,0-0.4,0.1h-0.1h-0.1c-0.1,0-0.2,0.1-0.4,0.1l0,0c0,0-0.1,0-0.1-0.1V4.3h-0.1l0,0l0,0
					c0-0.1,0-0.2-0.1-0.3c0.1-0.1,0.1-0.3,0.2-0.4c0.1,0,0.3,0,0.4-0.1l0,0c0.3,0,0.7-0.1,1-0.1l0,0c0,0,0-0.1,0-0.1l0,0V3.2
					c0-0.1,0-0.2,0-0.3s0-0.4,0.1-0.6l0,0c0,0,0.1-0.1,0.1-0.1H37l0,0l0,0.5l0.2,0.2h0.1l0,0v0.1c0.4-0.1,0.8-0.2,1.2-0.4l0,0l0,0
					c0.1,0,0.2-0.1,0.3-0.2l0,0c0,0,0,0.1,0,0.1c0,0.1-0.1,0.2-0.2,0.3c-0.3,0.2-0.7,0.4-1,0.6l0,0h-0.1c-0.1,0-0.2,0.1-0.2,0.2
					c0,0.1,0,0.2,0,0.2l0,0l0,0c0,0.1,0,0.2,0.1,0.2c0,0.1,0,0.2,0,0.3c0,0.1,0,0.1,0,0.2v0.2h0c0.1,0.1,0.1,0.1,0.1,0.3
					c0,0,0,0.1,0,0.1v0.1l0,0c0.1,0,0.1,0.1,0.2,0.1c0,0,0.1,0,0.1,0h0.2h0.1c0.3,0,0.5,0,0.8,0c0,0,0.5-0.2,0.8-0.3l0.1-0.1
					l0.2-0.1h0.1l0.3-0.1h0.2l0,0c0,0-0.1,0-0.1,0.1c-0.2,0.1-0.3,0.2-0.4,0.3c-0.1,0-0.3,0.1-0.4,0.2c-0.2,0-0.3,0.1-0.4,0.3
					c-0.1,0.1-0.1,0.1-0.2,0.2c-0.1,0-0.2,0.1-0.2,0.1c0,0-0.4,0.2-0.4,0.3h-0.1V6c0,0.4,0.1,0.7,0.2,1.1C38.8,7.3,39,7.7,39,7.7
					l0.2,0.4c0,0.1,0.1,0.2,0.1,0.3c0.1,0.2,0.2,0.4,0.4,0.6L39.8,9c0.1,0.1,0.1,0.1,0.2,0.2l0.2,0.1l0.1,0.1l0,0c0,0,0,0.1,0,0.1
					l0,0C40.2,9.5,40.1,9.6,40,9.6L40,9.6L40,9.6z"/>
			</g>
			<g id="グループ_170">
				<path id="パス_41" class="st0" d="M1,11.6c0-0.1,0-0.1,0-0.2c0,0,0-0.1,0-0.1c0-0.2,0.1-0.3,0.1-0.4c0.1-0.2,0.1-0.3,0.1-0.5
					l0.1-0.3c0.2-0.3,0.3-0.7,0.3-1V9l0,0c0-0.1,0.1-0.2,0.1-0.2l0,0c0,0,0-0.1,0-0.1l0,0c0.2-0.3,0.3-0.7,0.5-1l0,0
					c0,0,0.2-0.4,0.2-0.6c0-0.1,0.1-0.2,0.1-0.3c0-0.2,0.1-0.3,0.2-0.4C2.8,6.1,3,5.9,3,5.6c0-0.2,0.5-0.9,0.5-1.2
					c0-0.3,0.2-0.5,0.4-0.5L4.3,4c0,0,0,0.1,0,0.1c0,0.1-0.2,0.4-0.2,0.4s0,0.1,0,0.1v0.1l0,0L4,5L3.9,5.1c0,0.1-0.3,0.6-0.4,0.7
					C3.5,5.9,3.5,6,3.4,6.1c0,0.1-1.5,3.2-1.5,3.3s-0.5,1.4-0.5,1.5v0.4c0,0-0.1,0.2-0.1,0.3C1.2,11.6,1.1,11.6,1,11.6z"/>
			</g>
			<g id="グループ_171">
				<path id="パス_42" class="st0" d="M39.2,13.5c-0.1,0-0.2,0-0.3,0c-0.1-0.1-0.2-0.1-0.3-0.1c-0.2-0.1-0.5-0.3-0.7-0.4
					c-0.1,0-0.1,0-0.2-0.1c-0.1,0-0.2-0.1-0.3-0.1l0,0c-0.1-0.1-0.2-0.1-0.3-0.2h-0.2l-0.3-0.1c0,0-0.1-0.1-0.2-0.1l0,0l-0.1-0.1
					c0-0.1,0-0.2,0-0.3c0.1-0.1,0.2-0.3,0.4-0.3l0.1,0.1c0,0.1,0.1,0.1,0.2,0.1c0,0.1,0.1,0.1,0.2,0.1c0,0,0,0,0,0l0.1,0.1
					c0.1,0.1,0.2,0.1,0.4,0.2c0,0,0.7,0.4,0.8,0.4l0.1,0.1l0.1,0.1c0.1,0.1,0.2,0.2,0.3,0.3l0,0L39.2,13.5L39.2,13.5
					C39.2,13.5,39.2,13.5,39.2,13.5L39.2,13.5z"/>
			</g>
			<path id="パス_44" class="st0" d="M36.8,15.2c-0.7,0.1-3.1,0.7-13.1,3.5c-3.9,1.1-8.8,2.6-10.1,2.9l-0.8,0.2L11.8,22
				c-0.3,0-0.6,0.1-0.8,0.2h-0.1c-0.5,0.1-1.3,0.4-2.4,0.7c-0.8,0.3-2.3,0.7-2.6,0.8H5.7L4.8,24l-1.2,0.4c-0.3,0-0.9,0.4-1.2,0.5
				c0,0-0.3,0.3-2.1,0.6c-0.4,0.1,0.4-0.8,0.9-1c0.4-0.2,0.9-0.3,1.4-0.4C4.1,23.9,5.6,23.5,7,23c1.4-0.4,3.3-1,3.8-1.1
				c1.9-0.4,3.7-0.9,5.6-1.5c1-0.3,2.1-0.7,2.9-0.8s1.9-0.6,2.6-0.8c0.3-0.1,1.1-0.3,1.7-0.5c1.6-0.4,3-0.8,3.4-0.9l0.2-0.1
				c1.6-0.3,3.1-0.7,4.6-1.1h0.1l0.5-0.1c1-0.2,2-0.4,3-0.7h0.1c2.3-0.4,4.6-0.9,6.9-1.6c0.5-0.1,0.9-0.1,1.4-0.2s2.5-0.4,3.2-0.5
				C44.9,13.5,38.5,14.8,36.8,15.2z"/>
		</g>
	</g>
</g>
</svg>
