<svg class="svg-symbol" version="1.1" xmlns="https://www.w3.org/2000/svg" xmlns:xlink="https://www.w3.org/1999/xlink">
<symbol id="line" viewBox="0 0 315 300">
<g><path d="M280.344,206.351 C280.344,206.351 280.354,206.351 280.354,206.351 C247.419,244.375 173.764,290.686 157.006,297.764 C140.251,304.844 142.724,293.258 143.409,289.286 C143.809,286.909 145.648,275.795 145.648,275.795 C146.179,271.773 146.725,265.543 145.139,261.573 C143.374,257.197 136.418,254.902 131.307,253.804 C55.860,243.805 0.004,190.897 0.004,127.748 C0.004,57.307 70.443,-0.006 157.006,-0.006 C243.579,-0.006 314.004,57.307 314.004,127.748 C314.004,155.946 303.108,181.342 280.344,206.351 ZM95.547,153.146 C95.547,153.146 72.581,153.146 72.581,153.146 C72.581,153.146 72.581,98.841 72.581,98.841 C72.581,94.296 68.894,90.583 64.352,90.583 C59.819,90.583 56.127,94.296 56.127,98.841 C56.127,98.841 56.127,161.398 56.127,161.398 C56.127,165.960 59.819,169.660 64.352,169.660 C64.352,169.660 95.547,169.660 95.547,169.660 C100.092,169.660 103.777,165.960 103.777,161.398 C103.777,156.851 100.092,153.146 95.547,153.146 ZM127.810,98.841 C127.810,94.296 124.120,90.583 119.583,90.583 C115.046,90.583 111.356,94.296 111.356,98.841 C111.356,98.841 111.356,161.398 111.356,161.398 C111.356,165.960 115.046,169.660 119.583,169.660 C124.120,169.660 127.810,165.960 127.810,161.398 C127.810,161.398 127.810,98.841 127.810,98.841 ZM202.908,98.841 C202.908,94.296 199.219,90.583 194.676,90.583 C190.137,90.583 186.442,94.296 186.442,98.841 C186.442,98.841 186.442,137.559 186.442,137.559 C186.442,137.559 154.466,93.894 154.466,93.894 C152.926,91.818 150.460,90.583 147.892,90.583 C147.007,90.583 146.127,90.730 145.282,91.010 C141.916,92.142 139.650,95.287 139.650,98.841 C139.650,98.841 139.650,161.398 139.650,161.398 C139.650,165.960 143.345,169.660 147.885,169.660 C152.427,169.660 156.114,165.960 156.114,161.398 C156.114,161.398 156.114,122.705 156.114,122.705 C156.114,122.705 188.090,166.354 188.090,166.354 C189.637,168.431 192.094,169.660 194.667,169.660 C195.546,169.660 196.434,169.521 197.279,169.236 C200.650,168.114 202.908,164.966 202.908,161.398 C202.908,161.398 202.908,98.841 202.908,98.841 ZM253.385,138.381 C257.927,138.381 261.617,134.674 261.617,130.129 C261.617,125.569 257.927,121.872 253.385,121.872 C253.385,121.872 230.426,121.872 230.426,121.872 C230.426,121.872 230.426,107.103 230.426,107.103 C230.426,107.103 253.385,107.103 253.385,107.103 C257.927,107.103 261.617,103.398 261.617,98.841 C261.617,94.296 257.927,90.583 253.385,90.583 C253.385,90.583 222.187,90.583 222.187,90.583 C217.650,90.583 213.955,94.296 213.955,98.841 C213.955,98.850 213.955,98.858 213.955,98.878 C213.955,98.878 213.955,130.109 213.955,130.109 C213.955,130.114 213.955,130.129 213.955,130.129 C213.955,130.139 213.955,130.139 213.955,130.149 C213.955,130.149 213.955,161.398 213.955,161.398 C213.955,165.960 217.655,169.660 222.187,169.660 C222.187,169.660 253.385,169.660 253.385,169.660 C257.915,169.660 261.617,165.960 261.617,161.398 C261.617,156.851 257.915,153.146 253.385,153.146 C253.385,153.146 230.426,153.146 230.426,153.146 C230.426,153.146 230.426,138.381 230.426,138.381 C230.426,138.381 253.385,138.381 253.385,138.381 Z"></path></g>
</symbol>
<symbol id="fc-logo" viewBox="0 0 47.01 25.66"><g id="レイヤー_2" data-name="レイヤー 2"><g id="レイヤー_1-2" data-name="レイヤー 1"><g id="グループ_200" data-name="グループ 200"><g id="グループ_166" data-name="グループ 166"><path id="パス_34" data-name="パス 34" d="M27.44,12.34a4.21,4.21,0,0,1,.11-.6,2,2,0,0,0,0-.23,1.09,1.09,0,0,1,0-.44,2.35,2.35,0,0,1-.14-.45s-.15-.19-.13-.25l-.07-.1a.75.75,0,0,0-.31-.3.47.47,0,0,0-.35,0c-.19.05-.68.22-.68.22l-.45.28-.26.16a2.34,2.34,0,0,1-.2.27l-.06.07a.32.32,0,0,1-.23.33l0,0v.13l-.06,0a2.72,2.72,0,0,0-.34.42l0,.07h-.1a.43.43,0,0,1-.2.2l-.05,0-.28.52-.14.23s0-.25-.06-.25h0c0,.06.08-.19,0-.18l0-.21,0-.07A.61.61,0,0,0,23,12l-.12.16-.1,0a.83.83,0,0,1-.07.13.18.18,0,0,0,0,.12.21.21,0,0,1,.06.22v0a.49.49,0,0,1,0,.21.28.28,0,0,0,0,.09.67.67,0,0,1,.1.34s0,.06,0,.09,0,.07,0,.1a4.5,4.5,0,0,1,.07.63.43.43,0,0,0,0,.16.36.36,0,0,0,0,.1.36.36,0,0,1,.08.23v.06a.35.35,0,0,1,.14.06l.09,0h.16l.05-.16.18-.28a.29.29,0,0,1,.18-.31v-.06a1.44,1.44,0,0,1,.14-.54l0-.19a.62.62,0,0,0,.14-.28,1.34,1.34,0,0,1,.07-.18.36.36,0,0,0,.07-.17.57.57,0,0,1,.12-.37.27.27,0,0,0,.07-.08.43.43,0,0,1,.14-.16,1.13,1.13,0,0,0,.27-.34l0-.07a2.08,2.08,0,0,1,.37-.46,1.57,1.57,0,0,1,.55-.37,3.41,3.41,0,0,1,.46-.1.64.64,0,0,1,.4.07l.06,0a.81.81,0,0,1,.28.24l0,0V11l.12.17v.35a5.58,5.58,0,0,1-.26.91l0,0,0,0a.56.56,0,0,1-.15.1l-.08,0v0s-.23.17-.23.17l0,0a1.13,1.13,0,0,1-.27.13.38.38,0,0,1-.1,0h0l0,.05a.22.22,0,0,1-.14.08l-.25.13-.22.25-.38.16-.3.2s-.2.15-.2.15-.19.13-.16.16a.5.5,0,0,1,.2.34l.13.11.09,0a.21.21,0,0,0,.1-.06,2.73,2.73,0,0,1,.25-.23.86.86,0,0,0,.2-.18l.05-.05h0a.26.26,0,0,1,.17-.15,1.57,1.57,0,0,1,.3-.2h0l.3-.21.05,0a.35.35,0,0,1,.14-.06h.06a.45.45,0,0,1,.27.2c.06.08.07.08.1.08l.08.26v0a.3.3,0,0,1,0,.21,1.8,1.8,0,0,0,0,.22v0l-.12.3a.21.21,0,0,1,.05.2v0h0c-.06.1-.19.09-.26.12s0,0,0,0l-.05.06h-.08c-.07,0-.15.1-.22.11a1.45,1.45,0,0,0-.49.18,2.06,2.06,0,0,1-.26.12l-.05,0a.22.22,0,0,1-.1.09,1.55,1.55,0,0,0-.27.24,1,1,0,0,1-.3.27.58.58,0,0,0-.05.14v.05s0,.06,0,.09,0,.29.14.36l0,0a.24.24,0,0,1,.1-.05,1.51,1.51,0,0,1,.32-.53l.09-.11.15-.06a1.85,1.85,0,0,1,.64-.43,4.62,4.62,0,0,0,.55-.35c0-.06.39-.25.39-.25l.14-.16v0a.26.26,0,0,0,0-.15L27,14.64l0-.05,0,0,0-.08c.08-.31.14-.61.2-.93s.11-.57.18-.87v-.07A2.44,2.44,0,0,0,27.44,12.34Z"></path><path id="パス_35" data-name="パス 35" d="M32.25,6.39h-.12a2,2,0,0,0-.41.13l-.07,0,0,0a.67.67,0,0,1-.12.06l-.09,0a.61.61,0,0,1-.28.16.3.3,0,0,0-.16.08l-.08.05h-.06l-.17,0a.86.86,0,0,1-.23.06v0l-.1,0-.09.06-.09,0a1.31,1.31,0,0,1-.28.09.54.54,0,0,0-.27.11l0,0h0l-.36.11c-.24.09-.48.19-.71.3l0,0-.2.07a1.18,1.18,0,0,1-.22.17l-.51.23-.25.08-.64.27-.09,0c-.1,0-.46.18-.54.21l-.13,0a1.64,1.64,0,0,1-.38.1h-.07l-.12.08-.22,0a.17.17,0,0,0-.12,0h-.18a.43.43,0,0,1-.16,0v.15l0-.08c-.06-.16-.08-.16-.06-.28l0-.1V8.79l.08,0h0A1,1,0,0,1,25,8.47l0,0a1.14,1.14,0,0,0,.25-.18.69.69,0,0,1,.13-.11A.93.93,0,0,0,25.55,8a.32.32,0,0,1,.12-.11.18.18,0,0,0,.07,0,.5.5,0,0,1,.17-.15h0l0,0,0,0-.09-.21-.1,0a.84.84,0,0,0-.37.25h-.07a.24.24,0,0,0-.09.06l0,0-.69.29c-.12,0,0-.24-.08-.3s1-.57.87-.79-.85.27-.85.27l.07-.18a.62.62,0,0,0-.17-.22l-.08,0,0-.1v0a.29.29,0,0,1,0-.26.13.13,0,0,0,0-.06.49.49,0,0,1,0-.12,1.36,1.36,0,0,0,0-.2.93.93,0,0,1,0-.44,2,2,0,0,0,0-.24,1.54,1.54,0,0,1,0-.3.32.32,0,0,0,0-.17.9.9,0,0,1,.26-.7l0,0h0a.3.3,0,0,1,.23,0l0,0,.07,0,.22,0c.08-.13,0-.38,0-.38h0a.62.62,0,0,1-.19-.12l-.26,0-.35.14,0-.08a.39.39,0,0,0-.08-.1.5.5,0,0,1-.15-.2.47.47,0,0,1,0-.17c0-.06,0-.06,0-.07V2.92c0-.16,0-.33-.05-.5v0a.33.33,0,0,1,0-.24.42.42,0,0,1,0-.49,1.16,1.16,0,0,1,.28-.34.27.27,0,0,0,.07-.08.52.52,0,0,1,.3-.2h.06A.26.26,0,0,1,25,.9h.11a2.8,2.8,0,0,1,.25-.14,1.62,1.62,0,0,0,.43-.12l.17-.06H26a.23.23,0,0,1,.16.06l0,.06.06,0a.36.36,0,0,1,.29.15l0,0v0a.35.35,0,0,0,.05.13l0,0v0l0,.21a3.64,3.64,0,0,1,0,.57l0,.26a2.51,2.51,0,0,0,0,.55.26.26,0,0,1,0,.11.71.71,0,0,1,0,.41,1.77,1.77,0,0,0,0,.2.36.36,0,0,1,0,.11s0,.05,0,.08a.66.66,0,0,1-.09.28l0,0,0,.08s0,.06,0,.09a1.55,1.55,0,0,1-.08.23,2.29,2.29,0,0,0-.12.37c0,.09-.05.17-.08.28a2.07,2.07,0,0,1-.08.42L26,5.49h0a.88.88,0,0,1-.24.64.42.42,0,0,0,0,.1.43.43,0,0,1-.1.24.5.5,0,0,0,.06.24h0a.4.4,0,0,0,.19,0h0v0l0-.06c.11-.2.19-.34.25-.48s0-.08,0-.12a.63.63,0,0,1,.18-.34.47.47,0,0,1,.05-.26l0-.2a.46.46,0,0,0,.11-.3.54.54,0,0,1,.11-.27l.05-.06V4.41a.31.31,0,0,0,.09-.18,3,3,0,0,1,.18-.78.2.2,0,0,0,0-.11A1.75,1.75,0,0,1,27,3l0-.25,0-.19a1.15,1.15,0,0,0,0-.37,1.34,1.34,0,0,1,0-.4,5.62,5.62,0,0,0,0-.58L27,1.15s-.2-.88-.7-1.15H26a.24.24,0,0,0-.14,0l0,0h0c-.18,0-1.24.5-1.57.58a2,2,0,0,1-.34-.13L23.84.48l0,0a.44.44,0,0,0-.09-.11.6.6,0,0,1-.08-.08.94.94,0,0,1-.24.06.54.54,0,0,1-.07.13l-.05.1v.1a.65.65,0,0,1,0,.34,1.23,1.23,0,0,0-.07.46v.1l-.09,0s-.06,0-.1.12l0,.08a.81.81,0,0,1-.16.16.22.22,0,0,0-.09.07l-.17.21a2.5,2.5,0,0,1-.33.32l0,0a.52.52,0,0,1-.1.11.1.1,0,0,0-.05,0,.29.29,0,0,1-.2.16.36.36,0,0,1,0,.09l-.05,0,0,.06-.05.07-.57.73a1.21,1.21,0,0,1-.41.4h0a.43.43,0,0,0,0,.25,1.12,1.12,0,0,1,.18.2l0,0a.42.42,0,0,1,.15,0h.13a.6.6,0,0,1,.08-.08.69.69,0,0,0,.16-.18,1.3,1.3,0,0,1,.41-.43s.18-.22.18-.22.22-.29.32-.44a5.26,5.26,0,0,1,.62-.79L23,2.48l.08.13a.3.3,0,0,1,.13,0l.05,0,0,0a.51.51,0,0,0,.15.21l.06,0,.1,1,0,0L23.5,4l0,0a.35.35,0,0,1-.22.29l0,0a2,2,0,0,0-.41.46.5.5,0,0,1-.19.1h0a1.18,1.18,0,0,0-.25.3l-.22.27a1.29,1.29,0,0,1-.42.26,2.6,2.6,0,0,1-.36.21l-.07.07h0a.33.33,0,0,0,0,.17,1.07,1.07,0,0,1,.07.19h0l.1.08.11,0h0l.22,0a.43.43,0,0,0,.2-.11l.09-.06a.2.2,0,0,0,0-.08.36.36,0,0,1,.23-.22A.28.28,0,0,1,22.49,6a.21.21,0,0,1,.15-.15h0a.31.31,0,0,1,.06-.13l0,0a.44.44,0,0,1,.16-.17A.34.34,0,0,1,23,5.22l0,0,.28,0,.05,0a.35.35,0,0,0,.12.07.45.45,0,0,1,.27.3v.06a3.31,3.31,0,0,0,0,.77c-.05,0-.05.08-.05.2a.59.59,0,0,1,0,.26.38.38,0,0,0,0,.15.57.57,0,0,1,0,.13.62.62,0,0,1-.14.28c0,.05-.07.08-.07.1l-.09.13-.08,0h-.05v.39l-.15,0,0,0a.25.25,0,0,1-.13.12h-.19c-.06,0-.09,0-.1.07l-.07.06h-.07a.55.55,0,0,0-.22.1,1.41,1.41,0,0,1-.24.13c0,.12-.25.08-.3.16s0,.16,0,.35a.25.25,0,0,1,.17,0l1.43-.65.34.13s-.15,0-.16.1l-1.49.73h0c-.1.15-.09.19,0,.26l.1,0,.16.1c-.12.18,1.61-.89,1.69-.63l.06.3c-.39.23-1.23.66-1.22.7l-.3.12-.36.22a.47.47,0,0,1-.1.1l-.06.07a.22.22,0,0,1-.2.17h-.05l-.14.2-.24.11a.51.51,0,0,1-.21.1,8.2,8.2,0,0,1-1,.61l-.3.23-.11.11-.1,0s-.19.18-.2.18l-.25.22v0l-.17.1a.3.3,0,0,1-.08.08s-.4.48-.4.48h0c-.05,0-.07.05-.11.14l0,.06a.6.6,0,0,0,.05.24.68.68,0,0,1,.07.23.31.31,0,0,1,.12.05h.18a6.65,6.65,0,0,1,.84-.92,2.27,2.27,0,0,0,.31-.31l.89-.68.1-.07a1.32,1.32,0,0,1,.29-.19,2.71,2.71,0,0,0,.37-.21.36.36,0,0,1,.22-.09h0a.63.63,0,0,1,.2-.13c.1,0,.1,0,.1-.07l.13-.12a.26.26,0,0,0,.16-.09.86.86,0,0,1,.29-.14.31.31,0,0,0,.17-.13l.3-.19h0l.07-.07.21-.05.32-.16a3.62,3.62,0,0,0,.48-.25.24.24,0,0,1,.16-.07h0a.18.18,0,0,0,.13-.06.32.32,0,0,1,.18-.1h.08A.28.28,0,0,1,25,9.88h0l.36-.17c.35-.19.87-.32.93-.38l0,0h0l.07-.06a.68.68,0,0,1,.2-.07l.06,0L27,9l.14-.07.1,0c.08,0,.08,0,.09-.06l.23-.07.11-.08a.62.62,0,0,1,.28-.17l.15-.07a.66.66,0,0,1,.27-.12h.07l.24-.12A.51.51,0,0,0,28.89,8l.2,0,.16-.06.44-.16a.83.83,0,0,1,.32-.2,1.42,1.42,0,0,0,.35-.11l.23-.1a.36.36,0,0,0,.18-.12A2.18,2.18,0,0,1,31.43,7s.42-.2.62-.28a1.8,1.8,0,0,1,.2-.19Z"></path></g><g id="グループ_199" data-name="グループ 199"><path id="パス_36" data-name="パス 36" d="M19.51,17.92c0-.05-.06-.09-.19-.1a1.54,1.54,0,0,1-.5-.16h0l-.19-.07v0a.54.54,0,0,1-.27-.11l-.07,0h0l-.18-.14a1.63,1.63,0,0,1-.44-.15L17.32,17a2.1,2.1,0,0,0-.32-.1.82.82,0,0,1-.2-.14,5.09,5.09,0,0,1-.56-.32.94.94,0,0,1-.28-.1c-.08,0-.42-.23-.42-.23h0a2.85,2.85,0,0,1-.55-.28c-.05,0-.06,0-.09,0a.2.2,0,0,1-.21-.13h-.07l-.06,0c-.05,0-.24-.21-.31-.2l-.36-.22s-.43-.24-.57-.34a3,3,0,0,1-.39-.32h0a.83.83,0,0,1-.17-.12l-.05,0-.16-.12a.39.39,0,0,1-.21-.13s-.05-.06-.08-.05L12.07,14c0-.06-.06-.08-.16-.12a.42.42,0,0,1-.22-.13.19.19,0,0,1,0-.09.18.18,0,0,1-.09-.06l0,0,0-.54.14-.14a.66.66,0,0,1,.09-.27,2.23,2.23,0,0,0,.18-.45s.27-.9.3-.93h0a.68.68,0,0,1,.07-.37.46.46,0,0,0,.06-.23V10.6l0,0c.05-.05,0-.12,0-.23V10.2a2.08,2.08,0,0,0,0-.23.2.2,0,0,1,0-.15h0a.18.18,0,0,1,0-.25h0a.11.11,0,0,1,0-.13h0a.24.24,0,0,1-.13-.13H12.1a.18.18,0,0,1-.1,0h-.1l-.09.09-.12.11.06.05-.15.08a.5.5,0,0,0-.17.15l0,.08h-.08c-.19,0-.24,0-.3-.18h0a.25.25,0,0,1-.18-.06l-.05-.05V9.52c0-.08-.26.21-.3.12a.57.57,0,0,1-.13-.08l-.19-.21v-.1c0-.06.19-.26.24-.35a.22.22,0,0,0,0-.08s.16-.14.16-.18h0l.06-.13c.08,0,.13-.08.19-.17A.9.9,0,0,1,11,8.14a.56.56,0,0,1,.1-.15l.06-.08a.45.45,0,0,1,.1-.14s.06-.06.06-.09l.08-.11a.49.49,0,0,0,.13-.12.52.52,0,0,1,.1-.11l0,0,.12-.12s0,0,.07-.07A.33.33,0,0,1,11.9,7L12,6.86a.86.86,0,0,0,.07-.1l.27-.3a.23.23,0,0,1,.12-.06l.1,0a.21.21,0,0,1,.15-.07h0a.52.52,0,0,1,.27.19l.14.11s.54.71.63.8l.09.09.08.07h0l.4.2h0a.47.47,0,0,1,0-.17l-.08,0,0-.18-.09-.13Q14.1,7.1,14,6.89a.05.05,0,0,0,0,0c-.07,0-.17-.24-.15-.3a.24.24,0,0,0-.08-.09l-.06,0v0l-.33-.7-.1-.1h0l-.14,0a.2.2,0,0,1-.09.09l-.1.12c-.08,0-.11,0-.13.07L12.58,6c-.08.18-.14.22-.37.33,0,0,0,0,0,0L12,6.51h0a.81.81,0,0,1-.24.28.58.58,0,0,0-.18.23l-.14.08a.85.85,0,0,1-.31.34L11,7.57a1.08,1.08,0,0,0-.3.34c-.05.07-.1.15-.15.21l-.13.17L10,8.75c0-.12-.63.69-.7.63l.2-.68s0-.09.32-.53l.15-.4.22-.52s0,0,0-.07a.37.37,0,0,1,.11-.2.43.43,0,0,0,0-.05.27.27,0,0,1,.11-.2s0,0,0-.07l0-.06a.62.62,0,0,1,.07-.19,7.81,7.81,0,0,1,.59-1.32l0-.06a.35.35,0,0,1,.17-.19.14.14,0,0,0,0-.07.32.32,0,0,1,.09-.17s0,0,0-.06a.3.3,0,0,1,.1-.2,0,0,0,0,0,0,0,.39.39,0,0,1,0-.15v0l.16-.18a.43.43,0,0,1,.06-.22A1.65,1.65,0,0,1,12,3.36l0-.2A.49.49,0,0,1,12,3l0,0a.38.38,0,0,1-.08-.17.19.19,0,0,1-.09-.05s0,0,0,0a.21.21,0,0,0-.17.13.54.54,0,0,1-.07.13.3.3,0,0,0,0,.08.39.39,0,0,1-.17.25v0a2.93,2.93,0,0,1-.33.53.3.3,0,0,0-.06.18,1.74,1.74,0,0,1-.2.67l-.25.57a.36.36,0,0,0-.13.12.28.28,0,0,1-.09.1l0,0h0l-.16.07a1,1,0,0,1-.33.1H9.57l0,0-.1-.07a.36.36,0,0,1-.18-.12l0,0,0-.34,0,0c.07-.18.13-.36.19-.54a1.3,1.3,0,0,1,.22-.38l.79-1.36,0-.06a.3.3,0,0,1,.06-.18.57.57,0,0,0,.1-.19A.74.74,0,0,1,10.79,2a.55.55,0,0,1,0-.25,3,3,0,0,0,.08-.32.06.06,0,0,1,0-.06l-.16-.12-.08,0h0l-.12.12a.22.22,0,0,1,0,.18h0a.64.64,0,0,0-.13.19.72.72,0,0,1-.16.25A.47.47,0,0,0,10,2.3a.94.94,0,0,1-.1.23l0,0h0a.31.31,0,0,0-.05.1.36.36,0,0,1,0,.11,3.33,3.33,0,0,0-.25.5l-.09.18a1.38,1.38,0,0,0-.15.4.62.62,0,0,1-.16.36.42.42,0,0,0,0,.1,1.64,1.64,0,0,1-.14.3c-.07.12-.31.64-.36.69a.23.23,0,0,0-.07.07A3.12,3.12,0,0,1,8.15,6l0,.31a.72.72,0,0,0,.24.14l.18,0,0,0,.07,0a.58.58,0,0,1,.17-.06h0l.57-.15.13.1h0a.33.33,0,0,1,.15.11l0,0v0a.75.75,0,0,1-.1.55,1.05,1.05,0,0,1,0,.19.21.21,0,0,0,0,.19,3.13,3.13,0,0,0-.16.29,1,1,0,0,1-.11.17.17.17,0,0,0,0,.11.43.43,0,0,1-.09.23S9,8.73,9,8.91a3,3,0,0,1-.18.45,1,1,0,0,0-.11.29c0,.07-.13.47-.18.48v0a.28.28,0,0,1,0,.18l.08,0,.18.12h.08a.15.15,0,0,0,.11,0,.15.15,0,0,1,.11,0h.09s.35-.21.38-.21a.35.35,0,0,1,.17,0l.08,0h0a.14.14,0,0,1,.13.06l.08.1-.05,0,.05,0-.22.42,0,.08a.14.14,0,0,0,0,.09c0,.36-.27.57-.48.94,0,0,0,.07,0,.09a.23.23,0,0,1,0,.22.38.38,0,0,0-.06.16.76.76,0,0,1-.15.28.13.13,0,0,1,0,.06.11.11,0,0,0,0,0,.94.94,0,0,1-.06.15l0,.26.09.1h.15l.08-.07.11-.09a.11.11,0,0,1,0-.08l0,0,0,0,.14,0a1,1,0,0,1,.38,0,.23.23,0,0,1,.14.13l0,0h0a.25.25,0,0,1,.21.1h0a.24.24,0,0,1,.19.1.31.31,0,0,1,.08.15s0,0,0,0l.12.06-.06.12a.41.41,0,0,0-.05.18,1.09,1.09,0,0,1-.07.24l-.08.12c-.06.08-.1.13-.09.2l-.14.21a.71.71,0,0,1-.13.34.13.13,0,0,0,0,.08l0,.05a1.26,1.26,0,0,1-.24.44l-.07.17s-.19.31-.23.44a1.34,1.34,0,0,0-.07.18.75.75,0,0,1-.13.25.56.56,0,0,0-.11.2l.05,0,.18-.23c.11-.15.37-.45.37-.45a2.92,2.92,0,0,1,.19-.31,1.82,1.82,0,0,0,.16-.31c0-.14.54-.92.6-1l.08-.11a.4.4,0,0,1,.31-.25h0l0,0a.23.23,0,0,1,.1-.07h0a.65.65,0,0,1,.38.13,1.09,1.09,0,0,1,.17.13l.07.06.1.05a.64.64,0,0,1,.18.1h0a.31.31,0,0,1,.13.06,1.44,1.44,0,0,0,.25.18c.13.09.25.19.37.29l0,0a.76.76,0,0,1,.32.17.39.39,0,0,0,.22.11l.12.1,0,0,.09,0a.45.45,0,0,1,.14.1.13.13,0,0,0,.07.06l.17.08a.35.35,0,0,0,.14.06l.21.11a.41.41,0,0,0,.11.07l.13.08.13.07.1,0,.07,0,.15.09c.12,0,1.37.59,1.6.71l.08.06a.39.39,0,0,0,.22.1h.05l0,0a.67.67,0,0,0,.21.09,1,1,0,0,1,.31.15h0a7.78,7.78,0,0,1,.86.25l.14,0,.08,0c.08,0,.44.14.49.14h.15Zm-8-5.75-.05.06a.28.28,0,0,0,0,.13.81.81,0,0,1-.1.21.48.48,0,0,1-.06.29,1.84,1.84,0,0,0,0,.33L10.68,13a1.18,1.18,0,0,1-.29-.16h-.07a.2.2,0,0,1-.09,0h0a3.31,3.31,0,0,1-.47-.29s.1-.27.14-.34L10,12a7,7,0,0,1,.77-1.66l0,0H11l.07-.08.94.11,0,.2c0,.1-.23.7-.26.8l-.09.29-.09.29,0,.09a.11.11,0,0,0,0,.07Z"></path></g><g id="グループ_168" data-name="グループ 168"><path id="パス_39" data-name="パス 39" d="M4.38,20l0,0v-.06l-.1-.08,0-.31c0-.33-.06-.66-.1-1a.37.37,0,0,1,0-.11.67.67,0,0,0,0-.2,3.47,3.47,0,0,1,0-.72.14.14,0,0,0,0-.16.33.33,0,0,0,0-.14.09.09,0,0,1,0,0,.28.28,0,0,0,0-.13s.12-1.44.12-1.51.06-.42.06-.57,0-.14,0-.21a1.8,1.8,0,0,0,0-.4c0-.06.13-1.49.1-1.65a1.45,1.45,0,0,1,0-.36,1.77,1.77,0,0,0,0-.4,1,1,0,0,0,0-.49c0-.05,0-.1,0-.15a1.93,1.93,0,0,1,0-.24,1,1,0,0,0,0-.35,2,2,0,0,1,0-.54,1.77,1.77,0,0,0,0-.46c0-.07,0-.13,0-.2v-.1l-.56-.08a.14.14,0,0,0-.1.05,3,3,0,0,0-.38.62.61.61,0,0,1-.13.22.86.86,0,0,0-.1.16l0,.09a2.49,2.49,0,0,1-.25.38,1.76,1.76,0,0,0-.17.37l-.49.91a2.12,2.12,0,0,0-.13.2H2l0,0a.94.94,0,0,0-.1.23c0,.13-.2.47-.2.47l-.06.23-.06.08v0c0,.09-.18.38-.18.42a2,2,0,0,0-.11.35c-.05,0-.47,1.2-.47,1.2L0,17.92s.86-3.13.85-3.12.49-1.43.49-1.43l.1-.28,0-.06a.32.32,0,0,0,.07-.27.53.53,0,0,0,.06-.1s.15-.23.15-.23l.14-.34c.07-.14.14-.28.22-.41a.94.94,0,0,0,.12-.22,2.16,2.16,0,0,1,.2-.36s.15-.33.2-.4l.21-.35c.08-.12.24-.46.26-.48a.54.54,0,0,0,.1-.2.17.17,0,0,0,.1-.18c0-.17.31-.6.33-.7a.45.45,0,0,0,.19-.24,5,5,0,0,1,.54-1,1,1,0,0,0,.23-.35c0-.09.3-.5.32-.52A.57.57,0,0,0,5,6.53a.21.21,0,0,1,0-.06l.22-.33a6.88,6.88,0,0,0,.48-.76,1.47,1.47,0,0,1,.1-.13s.5-.83.51-.85a2.37,2.37,0,0,0,.37-.61l.12-.25a1,1,0,0,0,.23-.35.75.75,0,0,1,.17-.3,3.6,3.6,0,0,0,.39-.16.11.11,0,0,0,.08,0h.08l0,0a.18.18,0,0,0,.07.08.51.51,0,0,0,0,.17l-.07.13a.35.35,0,0,0-.07.12l0,0c0,.09,0,.13-.1.14l-.09.09a.26.26,0,0,1-.07.11.69.69,0,0,0-.1.19c0,.09-.57.73-.63.83S5.51,6.44,5.48,6.52a.34.34,0,0,1-.09.12l-.11.15-.06.1-.09.16A.88.88,0,0,1,5,7.22l-.14.18,0,.06a.41.41,0,0,0-.11.23.45.45,0,0,0-.16.2c0,.09-.11.18-.17.27a.72.72,0,0,0-.12.23l0,.08.13.12.35.35s.24,1.39.21,1.42,0,.23,0,.26,0,.87,0,.89,0,.21,0,.21v0c0,.08,0,1.53-.05,1.65s0,.46,0,.46a.88.88,0,0,1,0,.16.44.44,0,0,0,0,.2l-.18,1.34a2,2,0,0,0,0,.42,3.46,3.46,0,0,0,0,.46,3.09,3.09,0,0,0-.11.8s-.08,1.17-.06,1.22a.11.11,0,0,0,0,.05,2.29,2.29,0,0,0,0,.37v.45a.47.47,0,0,0,0,.31S4.39,20,4.38,20Z"></path></g><g id="グループ_169" data-name="グループ 169"><path id="パス_40" data-name="パス 40" d="M40,9.6l-.1,0-.06,0s-.05,0-.05-.06l0-.06-.06,0-.12-.06-.1,0-.12-.18c-.09,0-.37-.4-.39-.4h0a.19.19,0,0,0,0-.1,2.06,2.06,0,0,1-.25-.4A2.08,2.08,0,0,0,38.47,8s-.15-.4-.17-.44a.69.69,0,0,0-.11-.13,1.34,1.34,0,0,0-.73-1h-.15a.82.82,0,0,0-.35.13,3.67,3.67,0,0,1-.57.27,6.61,6.61,0,0,0-.74.28,4.89,4.89,0,0,0-.53.09l-.2,0-.17,0a.31.31,0,0,0-.06-.13s0-.1,0-.17a1,1,0,0,1,0-.16l0-.07a.19.19,0,0,1,.1,0s.57-.1.61-.12h0l.35,0L36,6.43l.56-.22c.06-.06.59-.39.62-.43a.42.42,0,0,0,.14-.28v0a.41.41,0,0,1,0-.11A.68.68,0,0,0,37.2,5s0-.09,0-.13a.81.81,0,0,1,0-.16A.41.41,0,0,0,37,4.45L37,4.36a.24.24,0,0,0-.25-.18h-.06l-.14-.09s-.4.15-.44.18a3.21,3.21,0,0,0-.43.07l-.09,0-.14,0a1.61,1.61,0,0,1-.36.1h0A.3.3,0,0,1,35,4.36V4.27l-.07,0h0s0,0,0,0A.38.38,0,0,0,34.83,4a1.12,1.12,0,0,1,.24-.37.8.8,0,0,0,.43-.09h0a5.05,5.05,0,0,0,1-.14l0,0a.22.22,0,0,0,.05-.08h0l0-.1c0-.13,0-.23,0-.33s0-.39.06-.58v0a.69.69,0,0,0,.13-.11l.28,0h0l.05.48.15.18h.12l0,0,0,.06a7,7,0,0,0,1.15-.38l0,0h0a.74.74,0,0,0,.34-.15s0,0,0,0a.27.27,0,0,0,0,.12.93.93,0,0,1-.18.34,7.66,7.66,0,0,0-1,.59l0,0-.07,0a.27.27,0,0,0-.23.17.22.22,0,0,0,0,.22h0a0,0,0,0,0,0,0,.25.25,0,0,0,.06.23.52.52,0,0,0,0,.3,1.36,1.36,0,0,1,0,.2l0,.15.05,0c.07.06.08.13.1.27a.28.28,0,0,0,0,.09v.06l0,0a.26.26,0,0,0,.19.05.16.16,0,0,0,.14,0l.21,0h.1A4.47,4.47,0,0,0,39,5.14s.55-.23.77-.28l.12-.12.22-.13.12,0,.29-.14h.15v0a.41.41,0,0,0-.11.07,1.44,1.44,0,0,0-.39.35,1.22,1.22,0,0,0-.37.2.72.72,0,0,0-.4.26.54.54,0,0,1-.22.15.9.9,0,0,0-.24.12s-.38.17-.37.26l-.09,0V6a2.15,2.15,0,0,0,.23,1.08c.09.18.27.66.27.66l.22.36a.82.82,0,0,0,.1.26,4,4,0,0,0,.36.55l.1.1a1,1,0,0,0,.19.17l.19.15.06.06v0a.83.83,0,0,0,0,.15h0a.22.22,0,0,0-.13.06h0Z"></path></g><g id="グループ_170" data-name="グループ 170"><path id="パス_41" data-name="パス 41" d="M1,11.59a.19.19,0,0,1,0-.18.57.57,0,0,0,0-.13,2.59,2.59,0,0,1,.14-.45,1.88,1.88,0,0,0,.12-.48l.06-.28a3.75,3.75,0,0,0,.32-1V9l0,0a.71.71,0,0,0,.06-.24v0a.41.41,0,0,0,.05-.09l0,0a8.22,8.22,0,0,0,.45-1l0,0s.18-.42.24-.55a1.88,1.88,0,0,0,.12-.3,3.29,3.29,0,0,1,.16-.44,4.89,4.89,0,0,0,.31-.8c.05-.23.49-.94.53-1.15A.52.52,0,0,1,4,3.88l.29.1a.83.83,0,0,0,0,.15c0,.06-.15.37-.18.45s0,.09,0,.13l0,.07h0L4,5l-.07.09c0,.14-.33.6-.37.74a1.28,1.28,0,0,0-.15.25c0,.06-1.5,3.24-1.48,3.34s-.48,1.38-.52,1.52l0,.37s-.07.19-.08.26A.42.42,0,0,1,1,11.59Z"></path></g><g id="グループ_171" data-name="グループ 171"><path id="パス_42" data-name="パス 42" d="M39.21,13.45a.86.86,0,0,1-.27,0,.85.85,0,0,0-.35-.08c-.24-.14-.49-.28-.74-.4a.3.3,0,0,1-.16-.05.9.9,0,0,0-.28-.08h0a1.49,1.49,0,0,0-.31-.2l-.18,0-.3-.15a.46.46,0,0,0-.17-.09l0,0-.06-.08a.56.56,0,0,1,0-.34.65.65,0,0,1,.39-.3l.07.06a.44.44,0,0,0,.18.12.35.35,0,0,0,.17.15.05.05,0,0,1,.05,0l.12.1a3.35,3.35,0,0,1,.36.21s.73.41.79.45l.14.1.1.11a1.58,1.58,0,0,0,.3.28h0l.17.17h0a.25.25,0,0,0,0,.08Z"></path></g><path id="パス_44" data-name="パス 44" d="M36.76,15.22c-.72.09-3.06.72-13.13,3.5-3.92,1.09-8.79,2.57-10.12,2.9l-.83.2L11.8,22a2,2,0,0,0-.8.2l-.08,0c-.52.13-1.3.38-2.41.73-.85.28-2.28.73-2.59.78l-.23,0-.86.33-1.17.4c-.27.05-.9.42-1.17.47,0,0-.32.32-2.13.64-.38.07.41-.76.88-1a5.48,5.48,0,0,1,1.4-.39A37.52,37.52,0,0,0,7,23c1.45-.44,3.26-1,3.78-1.07a50.75,50.75,0,0,0,5.56-1.52c1-.27,2.13-.68,2.94-.84s1.9-.56,2.62-.76c.34-.09,1.1-.32,1.7-.47,1.65-.4,3.05-.79,3.41-.94l.22-.1a39.05,39.05,0,0,0,4.63-1.13l.08,0,.51-.13a20.92,20.92,0,0,0,3-.74h.09a54.19,54.19,0,0,0,6.89-1.6c.45-.08.9-.13,1.37-.19s2.53-.39,3.15-.5C44.94,13.46,38.49,14.79,36.76,15.22Z"></path></g></g></g></symbol>
<symbol id="ico-play_pc" viewBox="0 0 24.67 28.45"><g id="" data-name=""><g data-name="レイヤー 1"><g data-name=""><path d="M22.67,14.22,1,1.73v25l21.67-12.5m2,0L0,28.45V0Z"></path></g></g></g></symbol>
<symbol id="arrow_next" viewBox="0 0 57.64 11.17"><g id="レイヤー_2" data-name="レイヤー 2"><g data-name="レイヤー 1"><g data-name="グループ 187"><polygon class="cls-1" points="0 11.18 57.64 11.18 57.64 10.18 2.41 10.18 11.88 0.71 11.18 0 0 11.18"></polygon></g></g></g></symbol>
<symbol id="arrow_prev" viewBox="0 0 57.64 11.17"><g id="レイヤー_2" data-name="レイヤー 2"><g id="レイヤー_1-2" data-name="レイヤー 1"><g id="グループ_187" data-name="グループ 187"><polygon class="cls-1" points="57.64 11.18 0 11.18 0 10.18 55.23 10.18 45.76 0.71 46.47 0 57.64 11.18"></polygon></g></g></g></symbol>
<symbol id="logo-side" viewBox="0 0 319.55 70.48"><g><g><path class="cls-1" d="M317.39,25.05v-.86h-.08V24h-.09c0-.25,0-.51,0-.77s-.17-.52-.25-.78l-.17-.08V22l-.25-.18c0-.09-.06-.17-.09-.25h-.09c0-.11-.05-.22-.08-.34l-.43-.36c0-.05-.05-.11-.08-.17h-.18l-.08-.17h-.17v-.09l-.6-.09a.27.27,0,0,1,0-.09h-.17V20.2l-.95,0V20.1h-.26V20a1.85,1.85,0,0,0-.95.16h-.6a.19.19,0,0,1,0,.08h-.17v.09h-.6v.09h-.52a.21.21,0,0,0,0,.08h-.17s0,.06,0,.08H310v.09h-.17v.1h-.35a2.33,2.33,0,0,0-.17.26l-.27.08a1,1,0,0,1,0,.17c-.1.1,0,0-.09.17.22.19.23.37.6.44a1,1,0,0,0,.17.35l1.81-.16a1.29,1.29,0,0,1,.09-.16l1.46-.08v.09h.69V22h.35v.09h.25v.09h.18l.42.52h.09c0,.15.05.29.08.43h.09v.18h.08v.26h.08v.26h.08a1.13,1.13,0,0,1,0,.26h.09c0,.3,0,.58,0,.87a5.2,5.2,0,0,1,.16,1.55c0,.29,0,.58,0,.86a8.76,8.76,0,0,1,.07,2.25h-.09c0,.4-.07.8-.1,1.2l-.17.09c-.07.69-.13,1.38-.19,2.07a5.34,5.34,0,0,0-.18,1.37c0,.29,0,.58,0,.87-.14.45,0,1.27-.1,1.72h-.09v.43h-.09c0,.41,0,.81,0,1.21h-.08c0,.17,0,.35,0,.52h-.08c0,.37-.07.75-.1,1.12h-.09v.26h-.09l-.09.7h-.08c0,.16,0,.34,0,.51H314l-.09.86h-.09v.35a.22.22,0,0,0-.08,0,2.09,2.09,0,0,0,0,.25h-.09l.09.26h-.09v.25h-.09c0,.31-.06.63-.1,1h-.08a1,1,0,0,1,0,.17h-.08V45h-.08c0,.15,0,.29,0,.44h-.09v.18h-.08c0,.2,0,.4,0,.6H313v.26h-.09v.43s-.06,0-.08,0a1,1,0,0,0,0,.17h-.09c0,.11,0,.23,0,.34h-.08c0,.21,0,.41,0,.61h-.08c0,.06,0,.11,0,.17h-.08c0,.14,0,.29,0,.43h-.08c0,.14,0,.29,0,.43h-.08c0,.2,0,.41,0,.61h-.09v.25h-.08c0,.14,0,.29,0,.43l-.17.08c-.06.3-.12.58-.18.87h-.09v.17h-.09L311.25,53h-.09v.17h-.08c0,.17,0,.34,0,.51l-.17.09c0,.26-.07.51-.1.78h-.08a2.09,2.09,0,0,1,0,.25.21.21,0,0,1-.08,0c0,.23-.07.46-.1.7h-.08c0,.32-.06.63-.09.95h-.1a1,1,0,0,1,0,.17h-.08c0,.2,0,.4,0,.6h-.08a2.35,2.35,0,0,0,0,.26H310l-.18,1-.18.09v.43h-.09c0,.26,0,.52,0,.78l-.26.17v.17h-.08v.25h-.09a.48.48,0,0,0,0,.17H309a2.25,2.25,0,0,0,0,.26h-.09c0,.31-.06.64-.1.95h-.08l-.18.77h-.08a3.57,3.57,0,0,1-.1.35h-.08c0,.2,0,.4,0,.6h.09c.15.54.29.16.6.35V64a1.25,1.25,0,0,0,1.12-.6l.17-.08a2.25,2.25,0,0,0,0-.26,1,1,0,0,0,.18-.08.91.91,0,0,1,0-.17h.08v-.34l.18-.09c0-.2.06-.41.1-.61s-.14,0-.1-.08l.18-.09a1,1,0,0,1,0-.17H311v-.34h.08a1,1,0,0,0,0-.17s.05,0,.09,0a2,2,0,0,1,0-.35h.08l.09-.34h.09v-.26h.09c0-.26,0-.52,0-.77h.08V59h.08c0-.2,0-.4,0-.61h.09c0-.11.06-.23.09-.34H312v-.61h.09v-.18h.09v-.52h.09v-.18h.09v-.86l.18-.08v-.86h.1c0-.21.05-.41.08-.61l.18-.08v-.35H313v-.42h.09c0-.32.07-.64.1-1h.08q0-.31.09-.6h.09v-.34h.09l.18-.51h.08v-.26h.09v-.17H314v-.69H314v-.26h.09c0-.17,0-.34,0-.52h.08c0-.14,0-.29,0-.43h.08c0-.11,0-.23,0-.34h.08c0-.18,0-.35,0-.52l.17-.08v-.18h.09v-.6h.09v-.34h.09v-.44h.09V45.9H315l.09-.68h.08a1,1,0,0,0,0-.17h.08c0-.12,0-.24,0-.35h.09c0-.22,0-.46,0-.69h.09v-.34h.09v-.26h.09v-.6h.08c0-.18,0-.35,0-.52h.08c0-.34.07-.69.1-1a.76.76,0,0,1,.18-.09v-.35h.09v-.44h.09c0-.46.06-.92.1-1.38h.08c0-.17,0-.34,0-.52h.09c0-.26.05-.52.09-.78h.09l.09-1.29s-.11,0-.08-.17h.08c0-.57.07-1.14.11-1.72H317c0-.58.06-1.15.1-1.73h-.08v-.08h.08l.09-1h-.08a1.25,1.25,0,0,1,.09-.6h.08c0-.35,0-.69,0-1h.09c0-.24,0-.46,0-.7h.09a1,1,0,0,0-.09-.52h.09c0-.38,0-.75,0-1.12h-.09c0-.21-.05-.4-.08-.61h.09V27h.09c.09-.27-.12-.41-.08-.6h.09A3.08,3.08,0,0,0,317.39,25.05Z"></path><path class="cls-1" d="M318.86,6.17V6a.68.68,0,0,0-.43.17v.08h-.34v.09a.86.86,0,0,0-.36.78c-.17-.06-.07,0-.17-.1l-.86.09-.18.25-.78.17-.17.34h-.35V8a3.79,3.79,0,0,0-.35.25v.26l-.52.07a1.9,1.9,0,0,1-.61.78V9.4l-.51.09c-.12.08-.1.32-.18.43l-.53.42v.17l-.87.6c-.06.09-.07.37-.17.43l-.52.08-.09.26-.26.18v.07h-.26v.09l-.17.08a1.09,1.09,0,0,0,0,.18l-.17.08a3.83,3.83,0,0,0-.61.77h-.17c0,.06,0,.12,0,.17H309c-.05.12-.11.23-.17.35h-.18v.09c-.25.15-.06-.08-.26.17h-.08c0,.13,0,.24,0,.35l-.26.09v.08l-.25.17a1,1,0,0,0,0,.17l-.26.17c-.07.18.05.26.08.35h-.16a.48.48,0,0,0,0,.17l-.45.17c-.09.1,0,.21-.08.34h-.09c-.06.09-.12.17-.17.26h-.17a.22.22,0,0,0,0,.09h-.18a4.58,4.58,0,0,1-.34.43l-.17.09a2.5,2.5,0,0,0-.09.25l-.52.17c-.12.09,0,.21-.09.35l-.26.16-.09.35-.26.08c-.1.09-.11.34-.18.43h-.08l-.35.43h-.17c0,.12-.07.23-.1.34-.28.07-.37.21-.42.52H303l-.35.43h-.09v.26l-.18.09-.17.25c-.23.17-.35.1-.44.43a1.57,1.57,0,0,0-.52.25c0,.15-.06.29-.09.43a1.15,1.15,0,0,0-.6.34v.26h-.09c-.12.16-.21.2-.26.43h-.17a2.3,2.3,0,0,1-.27.68h-.09v.17l-.26.18v.17a.91.91,0,0,0-.17.09,1.69,1.69,0,0,0-.09.34c-.16.21-.34.14-.44.51a1.78,1.78,0,0,0-1,1h-.17c-.07.25-.14.18-.18.25V27l-.61.51h-.18a1.85,1.85,0,0,1-.26.68h-.08v.18l-.18.08v.17l-.26.17s0,.06,0,.09h-.16a.7.7,0,0,0-.09.17h-.09a3.37,3.37,0,0,1-.09.34l-.26.17v.17h-.08c0,.17,0,.35,0,.52l-.69.43a.22.22,0,0,1,0,.08l-.25.17c-.22.39.22.44-.35.6a3.08,3.08,0,0,1-1.14,1.37v.26h-.18v.08l-.26.18v.17l-.17.08v.17l-.18.09-.09.34-.17.09a1.09,1.09,0,0,1,0,.18h-.08v.25l-.44.1-.44.76-.34.17-.09.43c-.14.24-.29,0-.35.52-.35.1-.09,0-.26.25l-.18.09a1,1,0,0,1,0,.18c-.21.16-.41.33-.61.5v.26l-.35.17a1.08,1.08,0,0,0,0,.18h-.09v.17h-.09v.26h-.09c0,.12-.06.23-.09.35H288a.86.86,0,0,0,0,.16l-.35.18c0,.11,0,.23,0,.34h-.08V40a2,2,0,0,0-.27.17.86.86,0,0,1,0,.16l-.17.09-.09.43-.17.09v.17h-.09a1,1,0,0,0,0,.17l-.7.6v.25l-.17.09a1,1,0,0,0,0,.17h-.09v.26l-.44.25c-.09.11,0,.21-.09.35l-.26.17a1.83,1.83,0,0,0-.44.95l-.26.08-.09.25c0,.18.06.35.08.52s-.26,0-.34.09v.08l-.18.09v.17l-.17.08-.09.26h-.08a2.77,2.77,0,0,0-.1.26c-.34.1-.11,0-.25.25H283v.16l-.26.17a1.09,1.09,0,0,0,0,.18l-.26.17v.17l-.17.08c-.1.17,0,.41-.09.61l-.53.34v.26c-.17.05-.07,0-.17.08h-.09v.51l-.7.61-.09.34-.17.08-.09.26h-.09v.26l-.61.51v.17l-.17.09c0,.11,0,.23,0,.34l-.43.34-.09.44-.35.25-.18.78c-.48.13-.17.22-.35.51s-.35.28-.51.43a2.09,2.09,0,0,0,0,.26l-.61.5v.26h-.09v.17h-.09v.27l-.26.16a1.09,1.09,0,0,1,0,.18l-.17.08v.35l-.17.08c0,.12,0,.23,0,.34l-.17.09-.09.26-.26.17a3.37,3.37,0,0,1-.09.34h-.08a.81.81,0,0,0,0,.16l-.17.09-.09.43h-.09v.25l-.17.09c0,.12-.06.23-.09.35-.48.14-.09.11-.26.43l-.26.16-.09.26-.17.08c-.2.23-.13.37-.1.61s-.23.17-.35.25-.11.41-.17.61l-.18.08v.18l-.17.08-.09.35s-.06,0-.08,0,0,.28,0,.42h-.09v.18l-.17.08v.17h-.09v.17h-.09V64l-.26.17c-.23.34,0,.51-.44.77a2.11,2.11,0,0,0,.16,1.21h.69v.09c.49,0,.71,0,.86-.34v-.43l.36-.26V65l.17-.08v-.18h.09v-.16h.09l-.09-.26.18-.08v-.17l.17-.09V63.8h.09l.09-.35h.09V63.2h.08V63h.09v-.17H275v-.17l.18-.08v-.43l.17-.08c.06-.18.11-.35.18-.52l.26-.17a1.09,1.09,0,0,1,0-.18l.34-.25v-.26h.09a2.45,2.45,0,0,0,.44-1.11,2.67,2.67,0,0,1,.26-.09,3.88,3.88,0,0,1,.18-.69l.35-.26v-.17h.09a2.25,2.25,0,0,1,0-.26c.11-.1.23-.17.34-.26.13-.25,0-.58.1-.78l.35-.16a1.08,1.08,0,0,1,0-.18l.17-.08.09-.26h.09c0-.11.06-.23.09-.34l.34-.17c0-.12.07-.23.09-.34a1.51,1.51,0,0,1,.18-.09c0-.14.06-.28.09-.43h.09a2.58,2.58,0,0,1,.08-.26h.17c.09-.36.28-.55.36-.95h.17l.09-.34h.09v-.27l.17-.08v-.34h.09a.84.84,0,0,0,.17-.34h.18l.52-.6h.09l.09-.52.52-.42v-.17l.18-.09.18-.52.16-.08a.91.91,0,0,1,0-.17l.35-.26a2,2,0,0,0,.08-.26l.18-.08.09-.44.17-.07.09-.35c.28-.43.75-.7.88-1.28h.17c.12-.08,0-.22.09-.35l.26-.17V46.4h.09v-.17h.09v-.34h.08a.69.69,0,0,0,.18-.35c.53-.13.15-.16.35-.51l.35-.25V44.6l.17-.09a1,1,0,0,0,0-.18l.35-.25c0-.11.05-.23.08-.35s.29-.22.44-.33a2.25,2.25,0,0,1,0-.26.91.91,0,0,0,.17-.09v-.17l.26-.17a1,1,0,0,0,0-.17H288c0-.06,0-.12,0-.18h.08v-.26l.18-.09c0-.11.05-.23.09-.34l.17-.08a.86.86,0,0,1,0-.17h.08l.09-.26c.34-.09.11,0,.26-.26H289v-.17l.26-.17c0-.23.06-.46.09-.69.35-.09.34-.26.52-.51a1.92,1.92,0,0,1,.26-.17v-.26l.35-.17.09-.43.18-.09v-.17l.25-.17a2.68,2.68,0,0,0,.62-1c.49-.13.18-.15.35-.43l.26-.16V36.2h.18c.11-.15.23-.28.34-.43H293a1,1,0,0,1,.44-.77v-.08l.25-.09.09-.43.18-.08a1.91,1.91,0,0,0,.53-.69c.2-.05.18-.09.34-.17v-.35c.47-.11.19-.14.35-.42h.09l.09-.26c.5-.13.19-.31.43-.6l.44-.34v-.17l.17-.08V31l.44-.33c.18-.28-.05-.48.09-.7l.26-.08a1.4,1.4,0,0,0,.09-.17l.17-.08c0-.18-.05-.35-.08-.53l.78-.25v-.08a1.42,1.42,0,0,1,.18-.08v-.35l.43-.26v-.17l.18-.17v-.17H299v-.17h.09v-.26l.69-.42v-.18l.27-.17c0-.08,0-.17.08-.25h.17a.31.31,0,0,0,0-.09l.17-.08c0-.15,0-.29,0-.44h.08v-.18h.08a2.09,2.09,0,0,0,0-.25l.26-.09.08-.17h.18c.06-.11.12-.23.17-.34h.18l.09-.43c.35-.09.41-.3.52-.6h.17c.13-.5.27-.36.62-.6l.26-.34h.08l.09-.16h.17a2.79,2.79,0,0,0,.36-.69,1.06,1.06,0,0,0,.86-1c.51-.05.29-.19.53-.42l.26-.08c.11-.1.1-.32.17-.43h.09a1.29,1.29,0,0,0,.36-.6.68.68,0,0,0,.52-.6c.31-.07.37-.21.61-.34v-.26h.26V17.8c.23-.06.21-.1.34-.25a.27.27,0,0,1,.09,0v-.26l.44-.26v-.26c.21-.06.14,0,.26-.17h.08a1,1,0,0,0,0-.17h.09v-.26h.09a2.33,2.33,0,0,0,.17-.26h.18v-.08l.26-.17v-.17h.09v-.17l1-.85a2.44,2.44,0,0,0,0-.27l.26-.17.08-.25h.26l.27-.34h.08v-.17l.44-.26.44-.6h.17c.05-.09.12-.18.17-.26h.26l.44-.52v-.16c.18-.27.39-.08.52-.52.42,0,.34-.17.52-.42l.18-.09v-.18h.08a1,1,0,0,0,0-.17c.1-.11.21,0,.35-.09a1.23,1.23,0,0,0,.35-.77,1.37,1.37,0,0,0,.78-.17V9h.43V8.91a.39.39,0,0,0,.27-.34.42.42,0,0,0,.34-.17h.09V8.14h.35l.35-.43h.08l.09-.26h.35l.17-.25H319V7.13h.18V7.05l.25-.09c0-.12.07-.23.1-.34C319.19,6.53,319.12,6.33,318.86,6.17Z"></path><path class="cls-1" d="M227.93,16.69v.08h.43v.09c.6.19,1-.22,1.38-.33h.52v-.08h.17v-.09H231a.89.89,0,0,1,.08-.17h1.56a.27.27,0,0,1,0-.09h.16a.19.19,0,0,0,0-.08h.6V16h.44a1,1,0,0,1,.09-.17h.6v-.09l1.12.18c.28,0,.57,0,.86-.08v.09h.26V16h.34v.09h.61a1.3,1.3,0,0,0,.08.17c.32.15.29-.15.51.18.46,0,.34,0,.61-.17,0-.25,0-.46-.08-.6l-.17-.09v-.35h-.08l-.09-.25c-.08,0-.28-.06-.34-.09l-.09-.18h-.6l-.26-.34-1-.1a8.54,8.54,0,0,0-2.59-.28c-.25.22-.89,0-1.29.16v.08h-.86a.28.28,0,0,1,0,.09h-.17a.91.91,0,0,1-.09.17l-2.5.32c-.47.19-.68.86-1.13,1.12C227.56,16.37,227.56,16.6,227.93,16.69Z"></path><path class="cls-1" d="M237.34,24.1c.45,0,.34,0,.61-.16a.78.78,0,0,0-.17-.61c-.31,0-.39,0-.52.17h-.08v-.35h-.09c-.23-.3-.1,0-.34-.17-.09-.12-.17-.24-.26-.34h-.42a1.51,1.51,0,0,1-.09-.18h-.69v.08H235v.09h-.09v-.09h-.51v.09h-.61v-.09l-2.67-.11c-.37.3-1.7-.11-2.24.06v.09h-.27c0,.05,0,.11-.08.17h-.26v.08l-.35.26c-.06.17,0,.07-.09.17,0,.47,0,.59.25.78v.08h.43a1.4,1.4,0,0,1,.09.17h.26v.1l1.9-.08v-.08a5.26,5.26,0,0,1,1.8.1c.32.09.57-.1.79-.07s0,.05.08.08l1.38-.07v-.09h1v-.09h.43l.08-.17c.43-.18.43.17.7-.26h.08a2.25,2.25,0,0,1,0,.26S237.29,24,237.34,24.1Z"></path><path class="cls-1" d="M286,24.49h.78a.19.19,0,0,1,0,.08.79.79,0,0,0,.61.19v-.09h.17v-.09h.34a.19.19,0,0,0,0-.08h.17v-.08l.87-.17v-.09h.17l.09-.16h.25v-.09l.35-.08v-.09h.43v-.08h.27v-.08h.25s0-.06,0-.09h.34v-.08h.35v-.08h.43v-.09l1.29-.07v-.09h.18a.89.89,0,0,0,.08-.17h.18v-.08l1-.08.09-.17c.17-.05.44.23.69.1V22.6l.26-.09c0-.2,0-.4,0-.6h-.09c-.28-.39-.13-.1-.51-.27v-.08h-.17a.28.28,0,0,0,0-.09l-.51.08-.87-.09v.08h-.34v.09a.14.14,0,0,1-.17-.09l-.78.08v.09h-.52v.08h-.09c-.15,0-.41-.27-.68-.19a.28.28,0,0,1,0,.09l-.34.08v.09H290v.08h-.17V22h-.52v.09h-.17v.08h-.35a1.3,1.3,0,0,1-.08.17,3,3,0,0,0-.43.09v.08h-.18v.08h-.61v.08h-.17v.09H287v.07a2.25,2.25,0,0,1-.35.09V23h-.17l-.18.26h-.08a1,1,0,0,0,0,.17l-.44.34a1.53,1.53,0,0,0,.08.61C286,24.43,286,24.49,286,24.49Z"></path><path class="cls-1" d="M164.18,60.83h.52a1.63,1.63,0,0,1,.11.17,1.28,1.28,0,0,1,.15-.23,1.34,1.34,0,0,1,0-.2C165,60.5,164.12,60.92,164.18,60.83Z"></path><path class="cls-1" d="M207.58,51.68l-.1.17h-.25c-.06.09-.11.17-.18.26h-.17c-.06,0-.06.11-.17.17s-.07.34-.1.52a.93.93,0,0,0-.43.25v.08l-.52.17-.52.6H205l-.27.35h-.17l-.43.51-.36.26a.22.22,0,0,1,0,.08h-.17v.09c-.13.11-.11,0-.17.26a1.17,1.17,0,0,0-.61.33,1.31,1.31,0,0,1-.09.17h-.26s-.06.11-.08.17l-.52.16-.26.34-.35.08c-.06.09-.11.18-.18.27l-.25.16a.27.27,0,0,0,0,.09h-.18c-.12.14-.23.29-.35.42h-.17c-.06.09-.11.17-.18.26h-.17l-.09.17h-.17l-.17.17h-.18v.09H199l-.09.16h-.25l-.18.26h-.26c-.05.09-.11.17-.17.26l-.26.08a.28.28,0,0,0,0,.09c-.2.11-.43,0-.69.07a.14.14,0,0,1,0,.09,1.14,1.14,0,0,1-.6.08v-.08c-.78,0-.83-.26-1.29-.53,0-.87-.06-1.94-.06-2.94,0-.31-.05-.64-.08-.94h.09c.16-.52,0-1.34.11-1.81s-.25-.71-.17-1l.18-.08v-.17h.08c0-.41,0-.81,0-1.21l.17-.08c0-.26,0-.52,0-.78h.08c0-.2,0-.4,0-.6h.08a2.17,2.17,0,0,1,0-.26h.08c0-.29,0-.58,0-.87,0,0,.1-.06.16-.08,0-.26-.05-.52-.08-.78H196a1.09,1.09,0,0,1,0-.18h.08c0-.17,0-.34,0-.52h.09a1,1,0,0,1,0-.25h.08c0-.24,0-.46,0-.69a5.25,5.25,0,0,0,.27-1.55c0-.34.07-.69.1-1h.08c0-.21,0-.41,0-.61h.09c0-.11.06-.23.08-.34H197c0-.58.07-1.16.11-1.73h.08c0-.17,0-.34,0-.51s-.1,0-.09-.09a.27.27,0,0,0,.09,0v-.43h.09v-.51h.09c0-.31,0-.62-.08-.94l-.42-.61h-.69a1,1,0,0,1-.1.17h-.25a1,1,0,0,1-.18.17c0,.61,0,.86.51,1a.84.84,0,0,1-.17.34h-.09v.51l-.18.09c0,.2,0,.4,0,.61h-.08l-.09.35h-.09v.34h-.09c0,.92-.07,1.84-.11,2.76h-.09v.68h-.09v.52H195v.43h-.09v.26h-.09v.76h-.09v.27h-.09v.34h-.09V47h-.08c0,.2,0,.41,0,.61h-.09v.25h-.09v.52h-.09v.43h-.09v.26H194c0,.11,0,.23,0,.34h-.07c0,.2,0,.4,0,.6h-.09a2.17,2.17,0,0,1,0,.26h-.08c0,.23,0,.46,0,.69h-.08c0,.17,0,.34,0,.52a.7.7,0,0,0-.17.09c0,.51-.07,1-.1,1.55h.08a2.46,2.46,0,0,1-.09.34h-.08a.67.67,0,0,0,.08.51h.09v.09h-.09v.6h-.09c0,.41,0,.81,0,1.21a11.74,11.74,0,0,0,.24,3c.13.48-.09.83.15,1.21l.52.43a.91.91,0,0,0,.09.17h.17c0,.06.06.12.08.18h.34l.09.17h.18a.11.11,0,0,0,0,.08l.34.09a.28.28,0,0,1,0,.09h1.13l.94-.07c0-.06.06-.12.1-.18h.52a1.42,1.42,0,0,1,.08-.18h.35c0-.06,0-.11.08-.18a2,2,0,0,0,.35,0l.09-.16h.26a2.46,2.46,0,0,1,.17-.27h.18l.08-.17.52-.16c.06-.09.11-.18.17-.26h.17a3,3,0,0,0,.18-.25h.17l.36-.44.34-.08.09-.16H202l.44-.52h.17c.07-.09.12-.18.18-.27l.26-.08.09-.17a.54.54,0,0,0,.18,0,1.38,1.38,0,0,1,.17-.25h.16c.07-.09.12-.18.18-.26H204a2.93,2.93,0,0,1,.18-.26h.17l.18-.26h.17l.27-.34h.17l.26-.34.34-.08c.12-.14.23-.29.35-.44h.18l.43-.51h.26V55l.26-.18v-.24c.47-.12.32-.29.53-.61l.26-.16v-.52l.18-.09c.15-.23.11-.43.35-.6a1.44,1.44,0,0,0-.34-1C207.85,51.52,207.75,51.53,207.58,51.68Z"></path><path class="cls-1" d="M209.55,8v.09h-.17a.19.19,0,0,1,0,.08H209a1.42,1.42,0,0,0-.08.18l-.36.25a.14.14,0,0,1,0,.09h-.17l-.26.34-.34.1c-.15.19-.3.39-.44.59l-.79.6v.17l-.52.43V11l-.34.25a1.09,1.09,0,0,0,0,.18l-.35.25-.09.17h-.17c-.08.12-.17.23-.26.34h-.09v.18a2.26,2.26,0,0,1-.26.16v.18c-.15.11-.29.23-.44.33v.18c-.27.08-.3.22-.52.34V14c-.24.06-.22.09-.35.25h-.09v.26c-.2.17-.4.34-.61.5v.18l-.17.09v.26l-.18.08a1,1,0,0,1,0,.17l-.17.17h-.17a.28.28,0,0,1,0,.09l-.26.17v.25l-.17.1v.17c-.09.1-.32.09-.44.16l-.26.35-.17.08-.09.26-.35.25v.09c-.24.17-.34.09-.44.43h-.17v.08c-.17.15-.35.28-.52.44V19l-.17.17h-.18v.09l-.26.17v.17l-.17.08a.27.27,0,0,0,0,.09c-.23.21-.43.15-.52.52l-.44.07v.09l-.17.09v.17l-.44.25v.26c-.49.13-.37.43-.61.77l-.35.26v.17l-.44.34a1,1,0,0,1,0,.17l-.6.43v.17l-.27.17-.17.51-.27.18v.08h-.17l-.61.69-.26.08-.52.59h-.09v.35l-.44.34a1,1,0,0,1,0,.17l-.26.17v.34c-.08.13-.22,0-.35.09s-.08.13-.17.17a2.17,2.17,0,0,1,0,.26c-.48.12-.17.16-.34.43l-.35.25v.26h-.09a2.67,2.67,0,0,1-.09.26.5.5,0,0,0-.44.43.65.65,0,0,0-.52.51c-.24.06-.28.09-.35.34-.24.06-.24.15-.42.25,0,.12,0,.23,0,.36-.34.07-.35.23-.52.5h-.09v.18l-.26.08a.28.28,0,0,1,0,.09l-.25.16V32l-.61.52a.49.49,0,0,0,0,.17l-.18.09c0,.11,0,.22,0,.34a.91.91,0,0,0-.17.09,1.18,1.18,0,0,0-.36.69c-.21,0-.14,0-.25.16h-.09v.17l-.27.18a1,1,0,0,1,0,.17l-.17.08-.26.34h-.17l-.18.26c-.35.33-.84.64-1,1.2h-.16v.08l-.43.34c0,.12,0,.23,0,.35l-.43.34s0,.05,0,.09h-.17l-.18.18a.49.49,0,0,1,0,.17l-.16.08a1.42,1.42,0,0,0-.45.77c-.28.07-.41.27-.61.43v.08h-.17a.91.91,0,0,1-.09.17h-.09c0,.17-.11.35-.17.53a.48.48,0,0,0-.44.41v.26h-.08c-.16.22-.32.25-.36.61-.38.09-.32.32-.52.6l-.17.08a1.44,1.44,0,0,0-.44.77,2.06,2.06,0,0,0-1,1.12c-.24,0-.22.09-.35.25h-.08a2.35,2.35,0,0,1,0,.26l-.51.42a1.09,1.09,0,0,0,0,.18l-.61.51v.17l-.17.08-.26.34-.26.18v.17l-.27.17v.43l-.52.42-.09.35a.91.91,0,0,0-.17.09c0,.05,0,.11,0,.17-.25.19-.51.4-.78.59a2.25,2.25,0,0,1,0,.26l-.17.09s0,.11,0,.17l-.34.26v.25l-.7.6a2.26,2.26,0,0,1,0,.26c-.31.29-.63.57-.95.85v.26l-.35.17-.35.43-.17.09a2.09,2.09,0,0,0,0,.25l-.78.69c0,.11,0,.23,0,.34l-.61.51c0,.17-.06.34-.1.52l-.77.68v.17l-.18.09v.17a.91.91,0,0,0-.17.09l-.09.42a2.4,2.4,0,0,0-.26.18l-.09.25h-.09c0,.11-.06.24-.09.34l-.35.26-.09.35-.26.16V58l-.17.08v.18l-.18.08a2.67,2.67,0,0,1-.09.26h-.08c-.11.17,0,.39-.09.6l-.35.26v.17h-.09V60h-.09c0,.17,0,.35,0,.52l-.16.08c.11,0,.06.09,0,.2v.32l.51.09v.09c.45-.06.43-.21.61-.51h.09v-.18h.09v-.17h.09l.08-.17h.17l.18-.18v-.17l.35-.25v-.18l.26-.17.09-.42.17-.09a1.08,1.08,0,0,0,0-.18c.12-.08.24-.16.35-.25v-.18c.21-.16.41-.33.61-.5a1.08,1.08,0,0,0,0-.18,2.46,2.46,0,0,0,.27-.17V57h.17l.35-.43h.09V56.4l.61-.51v-.18l.26-.16V55.2l.18-.08V55l.17-.09v-.17l.53-.43a1.13,1.13,0,0,1,0-.26h.08l.09-.17h.18l.17-.26c.2-.16.4-.34.61-.5s.28-.58.61-.78V52a.89.89,0,0,0,.61-.78h.17a.25.25,0,0,1,0-.09L174,51a1,1,0,0,0,0-.17l.62-.51c0-.12.05-.23.08-.35.43-.11.25-.23.44-.51l.61-.51v-.35l.18-.08.17-.26h.09V48.1l.35-.26v-.25h.08a1.09,1.09,0,0,0,0-.18h.08a2.35,2.35,0,0,0,0-.26l.34-.18.27-.34.17-.08v-.17l.17-.09a.31.31,0,0,1,0-.09l.52-.42a1.4,1.4,0,0,1,.09-.17h.17a1,1,0,0,0,.26-.69h.17a.25.25,0,0,1,0-.08l.78-.69.09-.43h.08c.24-.26.49-.28.53-.77.25-.06.29-.09.35-.34a.49.49,0,0,0,.43-.42,1.13,1.13,0,0,0,0-.26l.18-.09.18-.17v-.17l.43-.34.27-.69h.25v-.09l.18-.07v-.18a2.46,2.46,0,0,1,.27-.17v-.26l.25-.08.18-.26.52-.43v-.08l.35-.26v-.26l.69-.6a2.17,2.17,0,0,0,0-.26l.44-.24c0-.12.05-.25.08-.36l1-.85v-.17l.27-.17v-.17l.17-.08v-.27l.69-.5c0-.12.07-.23.09-.35l.26-.17v-.26l.44-.25V33.3l.17-.09c.27-.28.47-.28.54-.78.47-.11.64-.63.95-.93l.52-.43c0-.08,0-.17,0-.26l.26-.17a1.08,1.08,0,0,1,0-.18l.26-.16V30a2.78,2.78,0,0,0,.52-.25,1.69,1.69,0,0,0,.18-.78c.31,0,.37-.06.43-.34.32,0,.37-.06.44-.34.52-.14.15-.17.35-.51l.35-.26a1.4,1.4,0,0,1,.09-.17l.51-.42c0-.06,0-.12,0-.18l.26-.17v-.08l.26-.09a3.65,3.65,0,0,1,.18-.34h.17l.34-.42.17-.09a1,1,0,0,0,0-.17l.18-.09a2.14,2.14,0,0,1,.09-.34l.17-.08a1.08,1.08,0,0,1,0-.18l.26-.08v-.09c.15-.13.19-.1.26-.34.48-.13.31-.3.52-.6l.61-.42c0-.07,0-.12,0-.18l.43-.35c.18-.24.13-.33.44-.5v-.26a.73.73,0,0,0,.34-.17.28.28,0,0,1,0-.09h.26l.17-.25h.09v-.17c.2-.14.4-.27.6-.42a1,1,0,0,1,0-.17l.7-.6.16-.25h.18l.53-.61h.08V19c.36-.09.34-.26.52-.52H202a.82.82,0,0,0,.26-.42c.34-.09.27-.2.44-.44l.34-.25a.91.91,0,0,0,0-.17l.26-.17v-.26l.17-.08a1.08,1.08,0,0,0,.27-.52c.49-.13.17-.15.34-.43l.35-.26a.86.86,0,0,1,0-.16l.78-.69c.23-.23.38-.53.61-.77s.51-.32.61-.68c.21-.06.26-.08.35-.26a1,1,0,0,1,0-.17l.26-.08.44-.6.26-.08.17-.18v-.17l.26-.08s0-.06,0-.09l.43-.34V11h.08l.27-.35.25-.08a1.51,1.51,0,0,0,.18-.26h.09v-.17l.44-.34V9.61l.17-.09V9.44l.43-.25c.14-.22-.08-.17.18-.35a1.19,1.19,0,0,0-.25-1Z"></path><path class="cls-1" d="M272.89,14.27h.26l.35-.42h.18c.05-.09.11-.17.17-.26h.08a1,1,0,0,1,0-.17.88.88,0,0,0,.6-.43h.09v-.34l.18-.08a1.11,1.11,0,0,0,.09-.61c.45,0,.34,0,.6-.16,0-.46,0-.35-.17-.61-.44,0-.33,0-.6.17v.35l-1.3,0-.26.34H273v.09c-.13.11-.12,0-.18.25-.48.06-.3.16-.52.43l-.61.42a2.25,2.25,0,0,1,0,.26c-.55,0-.37.12-.61.43l-.17.08a1.42,1.42,0,0,0-.08.18h-.27c0,.06-.05.12-.08.17h-.26a.25.25,0,0,1,0,.09l-.34.25a2.26,2.26,0,0,1,0,.26c-.71.08-1.06.71-1.47,1.11-.24.24-.51.38-.61.77-.46.12-.36.43-.61.69l-.26.08a1.67,1.67,0,0,0-.17.26h-.18v.09h-.17l-.44.6h-.26v.08c-.16.13-.19.1-.26.35-.32,0-.37.06-.43.33-.48,0-.92.58-1.22.85,0,.07-.06.12-.09.18h-.17l-.18.17v.17h-.08c-.07.09-.12.17-.18.26l-.43.08v.08l-.26.17-.09.26H262l-.09.17h-.09v.17l-.26.17v.17l-.26.18v.17l-.17.08-.26.34-.27.09c-.05.08-.12.17-.17.26h-.09l-.09.25h-.17a1,1,0,0,0-.52.69,1.31,1.31,0,0,0-.7.51l-.17.08c0,.06,0,.11,0,.17l-.6.51v.18l-.18.17h-.17l-.09.17-.35.26v.17l-.26.17v.17l-.17.08-.26.34h-.09v.18c-.16.22-.34.16-.44.51-.28,0-.25.08-.43.17v.26c-.34.08-.26.19-.44.43l-.43.33v.09h-.18v.09c-.13.11-.12,0-.17.25h-.27a.27.27,0,0,1,0,.09.86.86,0,0,0-.34.6h-.17s0,.05,0,.08l-.52.43c0,.08-.06.17-.09.26h-.26a.21.21,0,0,1,0,.08l-.43.34v.26a1.4,1.4,0,0,0-.78.51,1,1,0,0,0-.09.17h-.18l-.78.86h-.17l-.1.16h-.08v.43l-.43.35v.08h-.18l-.44.6-.78.6c0,.11-.06.22-.09.34l-.17.09a1,1,0,0,1,0,.17l-1.12,1a1.08,1.08,0,0,0,0,.18l-.27.16v.18l-.61.42v.17l-.34.26v.17l-.35.26a1,1,0,0,0,0,.17l-.35.25v.18l-.18.08c-.09.12-.17.24-.26.35l-.35.08c-.2.23-.4.46-.61.68h-.17l-.09.17h-.08c0,.09,0,.18,0,.26-.17.15-.35.28-.52.42v.18l-.78.68v.17l-.44.34V43l-.61.51a1.4,1.4,0,0,1-.09.17l-.34.08a.28.28,0,0,1,0,.09.65.65,0,0,1-.17.08v.17a1,1,0,0,0-.17.1c-.18.24-.18.44-.44.59v.26c-.25.06-.25.15-.44.26v.25c-.26.07-.28.17-.44.34,0,0,0,0-.08,0v.18l-.17.08s0,.06,0,.09h-.26a.28.28,0,0,1,0,.09l-.18.09v.17h-.08c-.12.15-.23.29-.36.43h-.08v.26l-.26.17a2.67,2.67,0,0,0-.09.26h-.18a.19.19,0,0,0,0,.08l-.27.18a2.08,2.08,0,0,1,0,.25l-.26.18v.08h-.17l-.44.6-.26.08a.28.28,0,0,1,0,.09l-.25.17v.17h-.09c-.19.22-.44.37-.52.68-.47.13-.31.29-.52.6l-.27.17a2.58,2.58,0,0,0-.08.26l-.53.42a1.08,1.08,0,0,1,0,.18l-.78.68a2.26,2.26,0,0,0,0,.26c-.22.06-.15.05-.26.17h-.09v.17l-.27.17a1,1,0,0,1,0,.17l-.79.69v.17l-.26.17v.08h-.17v.09l-.18.09a2.09,2.09,0,0,1,0,.25c-.23.21-.46.4-.69.6l-.18.52-.7.59c0,.12-.06.23-.09.35l-.43.34-.18.52-.26.17v.16l-.18.09-.78.86-.26.18v.16c-.62.13-.73.68-1,1.11l-.17.09c-.09.11-.18.23-.27.33l-.34.09c-.06.08-.11.17-.17.26h-.09c0,.05,0,.11,0,.17h-.08v.17l-.26.17c0,.14-.05.28-.09.43l-.17.09c-.29.3-.77.66-.88,1.11h-.09l.09.25h.51a1.51,1.51,0,0,0,.1-.17,5.08,5.08,0,0,1,1.63.1,3.51,3.51,0,0,1,.61-.76.76.76,0,0,1,.18-.09v-.18c.18-.13.35-.28.52-.42v-.17l.18-.17h.17V62l.35-.26.17-.25h.09v-.17l.43-.34.09-.17h.17a.76.76,0,0,0,.09-.18l.44-.34v-.17c.23-.2.47-.39.69-.59a2.35,2.35,0,0,0,0-.26l.26-.17.09-.35.7-.6v-.17l.26-.17c0-.11.05-.23.09-.34l.43-.34v-.17l.18-.09a1.61,1.61,0,0,0,.35-.6c.49-.13.17-.15.34-.43l.61-.51v-.17l.62-.43v-.17l.26-.17v-.17l.52-.43.09-.43.17-.09a1.29,1.29,0,0,0,.44-.6h.17l.09-.18h.08a.86.86,0,0,0,0-.16l.52-.43V51.7c.22-.06.14-.05.26-.18h.09v-.18l.17-.08.35-.43c.26-.22.53-.45.78-.68l.09-.26H238l.17-.17v-.18h.09l.09-.26h.08c0-.06.07-.12.09-.17h.17l.17-.17a1.09,1.09,0,0,0,0-.17,2,2,0,0,1,.26-.18l.09-.35h.08a.56.56,0,0,0,.18-.34c.36-.09.44-.31.61-.59h.09v-.18l.52-.42v-.26l.35-.26v-.17s.06,0,.08,0l.1-.17c.27-.2.51-.13.61-.51.39-.1.45-.44.7-.69l1.22-1.11a2.09,2.09,0,0,1,0-.25l.6-.51a1,1,0,0,1,0-.18c.2-.26.48-.13.6-.59h.18V42l.52-.43v-.17c.17-.21.32,0,.44-.43.64-.16.77-1,1.31-1.28a2.09,2.09,0,0,1,0-.25c.46-.1.44-.34.7-.6l.52-.43a1,1,0,0,1,0-.17h.08l.18-.26.35-.25V37.5l.17-.08.09-.35.52-.42V36.3c.4,0,.37-.11.61-.24v-.27c.49,0,.48-.28.7-.6l.17-.07v-.18l.35-.25.09-.35.26-.08c0-.06.06-.12.08-.18h.27l.78-.86h.17v-.08a3.79,3.79,0,0,1,.35-.25,1,1,0,0,1,0-.18l.95-.86v-.17h.09c.16-.2.36-.32.43-.61.56-.06.32-.29.61-.51h.18a.22.22,0,0,1,0-.09l.27-.16v-.18l.43-.33a1.09,1.09,0,0,0,0-.18h.08c.05-.09.12-.18.18-.27h.17c.06-.09.11-.18.17-.26h.09V29l.17-.1a1.78,1.78,0,0,0,.62-.86c.34-.08.32-.3.52-.51s.41-.33.6-.5a2.11,2.11,0,0,0,.18-.27h.18v-.09l.26-.17a1,1,0,0,1,0-.17l.26-.17a1.08,1.08,0,0,0,0-.18,1.67,1.67,0,0,0,.69-.5l.09-.18h.18l.26-.34.78-.68a1,1,0,0,0,0-.17l1-.86V23h.26l1-.85.08-.17h.17l.27-.35h.18l.17-.17v-.17l.17-.17h.18l.17-.26c.29-.18.4,0,.52-.42.71-.17,1-.79,1.57-1.1v-.27c.42-.11.32-.26.52-.51,0,0,.45-.29.52-.34s0-.17,0-.26h.25s0-.05,0-.08l.52-.43v-.17l.17-.08v-.09c.28-.17.31.15.44-.34a2.27,2.27,0,0,0,.78-.6l.09-.17h.26a2.33,2.33,0,0,1,.17-.26c.41-.37.81-.75,1.22-1.11Z"></path><path class="cls-1" d="M128.49,45.81c.07-.1.07-.21.19-.33a2.24,2.24,0,0,0,.38-.29c.21-.24.24-.44.53-.67a2.38,2.38,0,0,0,.56-.59,1.91,1.91,0,0,1,.49-.45,1,1,0,0,0,.43-.49,2.89,2.89,0,0,1,.76-.76c0-.28.78-.83,1-1s.23-.12.3-.21,0-.2.08-.3.5-.2.66-.38,0-.17.1-.25.16,0,.21,0a1.27,1.27,0,0,0,.26-.26c0-.07.1-.15.16-.22s.17-.11.23-.15.3-.23.27-.45a1,1,0,0,1,.16,0c.12-.25.5-.46.68-.67,0,0,0-.14,0-.19s.11,0,.15,0,.22-.16.3-.22a3.6,3.6,0,0,0,.53-.5c.05-.06.18-.12.22-.19s0-.29.1-.38.27-.05.38-.23,0-.21.14-.33.29-.06.42-.14.23-.26.37-.35a2.35,2.35,0,0,0,.33-.22c.12-.11.18-.23.34-.28,0-.14.39-.42.52-.56s.73-.47.71-.74a3.66,3.66,0,0,0,.7-.56l.21-.32c.11-.15.25-.13.21-.37.33-.23.63-.12.64-.66.2,0,.13-.18.26-.27s.23-.09.35-.16.31-.32.5-.43a2.22,2.22,0,0,0,.79-.7,1.82,1.82,0,0,1,.2-.45c.15-.2.22-.18.24-.47a.69.69,0,0,0,.62-.27c.15-.16.31-.42.54-.39.07-.18.28-.21.38-.35s0-.19.07-.28a1.43,1.43,0,0,1,.24-.19,11.34,11.34,0,0,0,1-.85,4.48,4.48,0,0,1,.93-.77c.21-.15.18-.1.15-.35,0,0,0,0-.06,0v0h0c-.14.06-.06-.09,0-.14,0-.46.12.12.06.11.44-.31-.16.11.13-.32s.08.12.33-.49c.16-.4-.14-1-.48-.88l-.13.14c0-.08-.38.65-.21.05-.3.15-.31.08-.29,0l-.12.19a.23.23,0,0,0,0,.07h.17c.1-.06.18-.1.12,0s-.08,0-.12,0-.39.24-.28.15l.11-.16c-.14,0-.28-.07-.37,0s-.13.13,0,0c-.14.12-.33.16-.4.35a.78.78,0,0,0-.53.25c-.1.13,0,.31-.16.44a3.42,3.42,0,0,1-.33.16c-.2.14-.42.35-.58.48s-.45.49-.69.57c0,.24-.18.13-.29.26s0,.16-.08.23c-.14.24-.21.23-.4.39s-.12.19-.22.27-.22.09-.31.18-.11.26-.19.35-.2.06-.26.13-.18.29-.43.46-.43.4-.66.57a4.56,4.56,0,0,0-1.08,1l-.27.42a3.37,3.37,0,0,1-.24.37c-.14.13-.33.2-.47.34a1.52,1.52,0,0,1-.4.32c0,.23-.83.84-1,.91,0,.48-.91.53-.87,1.06-.21,0-.27.1-.41.22a2.71,2.71,0,0,1-.55.38,1.79,1.79,0,0,0-.79,1.13c-.07,0-.18,0-.25,0a2.62,2.62,0,0,1-.45.49,2.46,2.46,0,0,1-.58.42c0,.22-.15.18-.27.3a1.46,1.46,0,0,0-.21.16s0,.14,0,.19-.26.2-.35.3-.11.21-.2.27c-.3-.07-.31.19-.53.26,0,.37-.88.69-1,1-.06.12,0,.2-.07.3s-.17,0-.22,0a.93.93,0,0,0-.27.25c-.06.08,0,.19-.08.29s-.22.07-.28.11a1.24,1.24,0,0,0-.31.34c-.27.36-.72.49-.74.92-.13,0-.16.12-.26.21s-.05.13-.08.16-.15,0-.19.05a4.8,4.8,0,0,1-.74.5c0,.17-.09.17-.12.29s-.07.29-.08.32a3.14,3.14,0,0,1-.46.44,3.73,3.73,0,0,0-.61.64,2.08,2.08,0,0,1-.22.39c-.09.09-.22.09-.3.18s-.12.23-.21.34a1.52,1.52,0,0,1-.34.22c0,.5-.55.84-.86,1.17s-.29.43-.45.6-.3.21-.44.36a2.92,2.92,0,0,0-.5.57s0,.15,0,.21-.17.06-.21.13,0,.27-.11.4-.15.08-.2.13,0,.15,0,.2-.21.16-.28.37a6.9,6.9,0,0,0,0,1c-.28,0-.68,0-.64.4-.24,0-.5,0-.61.25a1.83,1.83,0,0,0,.22,1c.17.22.67.22.92.14.44-.11.41-.56.47-1a1.37,1.37,0,0,0,.71-.24,1.47,1.47,0,0,0,.12-.5c.19-.05.2-.22.33-.32s.25-.12.33-.21,0-.17,0-.23.38-.2.33-.48c.16,0,.21-.16.31-.26a3.18,3.18,0,0,1,.33-.3,2.82,2.82,0,0,0,.54-.61l.25-.37s.15-.07.18-.11,0-.16,0-.2.34-.16.33-.39c.12-.08,0-.15.12-.28s.29-.32.24-.28c.19-.12.36-.14.55-.28C128.09,46.08,128.3,46.06,128.49,45.81Z"></path><path class="cls-1" d="M148.41,26v.14h0C148.46,26,148.45,26,148.41,26Z"></path><path class="cls-1" d="M147.25,24.9h0S147.34,24.82,147.25,24.9Z"></path><path class="cls-1" d="M152.76,25.16h.08c0-.35-.05-.69-.08-1h-.08l-.12-.55h.08a.78.78,0,0,0,0-.16h.09c.07-.26-.14-.37-.13-.55h.08a2.55,2.55,0,0,0-.24-1.18c0-.27,0-.53-.07-.8h0l0-.41.08-.49a3.42,3.42,0,0,0,0-.56c0-.36-.14-.35-.21-.72a2.74,2.74,0,0,0-.44-1c-.14-.18-.44-.5-.44-.5l-.33.13-.18.36v.43l0,.38v.66l-.13.43.07.36.07.49-.19.29a.67.67,0,0,0-.14.38v.18l.27.42a.22.22,0,0,0,0,.3.65.65,0,0,0,.33.22l-.13.88c0,.28,0,.54.06.8a8,8,0,0,1,.23,2.07h-.08c0,.38,0,.75,0,1.13l-.16.09c0,.64,0,1.28,0,1.92a6,6,0,0,0-.07,1.29c0,.26,0,.53.07.79-.1.44.14,1.17,0,1.6H151a2.69,2.69,0,0,0,0,.4h-.09l.09,1.12h-.08c0,.16,0,.33,0,.49h-.09v1h-.08a1.79,1.79,0,0,1,0,.23h-.08c0,.22,0,.43,0,.65h-.09c0,.16,0,.32,0,.48h-.08l0,.8h-.08c0,.1,0,.2,0,.32h-.09a1.94,1.94,0,0,1,0,.24h-.08l.1.24h-.08a2.12,2.12,0,0,0,0,.24h-.09c0,.29,0,.58,0,.88h-.08c0,.05,0,.1,0,.15h-.07a1.85,1.85,0,0,0,0,.24h-.08l0,.39h-.08c0,.06,0,.11,0,.17H150c0,.19,0,.38,0,.55h-.08c0,.08,0,.16,0,.24h-.08l0,.39h-.08a.86.86,0,0,0,0,.16h-.08c0,.1,0,.21,0,.31h-.09c0,.19,0,.37.05.56h-.08a.81.81,0,0,0,0,.16h-.08l0,.4h-.09c0,.13,0,.26,0,.39h-.09c0,.18,0,.37,0,.56h-.08c0,.08,0,.16,0,.24h-.08c0,.14,0,.27,0,.41l-.17.09c0,.27-.06.54-.1.81h-.07v.16H149c-.05.48-.09,1-.14,1.45h-.08c0,.06,0,.11,0,.17h-.09c0,.17,0,.32,0,.48l-.16.09c0,.24,0,.48,0,.73h-.08a1.93,1.93,0,0,1,0,.24h-.08l0,.64h-.08c0,.29,0,.58,0,.87h-.09c0,.06,0,.11,0,.16h-.08c0,.18,0,.37,0,.56h-.08a1.93,1.93,0,0,1,0,.24h-.08c0,.33-.05.65-.08,1l-.16.1c0,.13,0,.26,0,.39h-.08c0,.24,0,.48.06.72-.08.05-.16.12-.24.18s0,.1,0,.16h-.09a1,1,0,0,1,0,.24h-.07v.15h-.07a1.93,1.93,0,0,1,0,.24h-.08c0,.3,0,.59,0,.88h-.08s0,0,0,.06l-.09,0a.16.16,0,0,0,0,.07l-.15.07a.59.59,0,0,1,0,.08l-.22.1v.18l-.51.24v.18l-.15.07s0,0,0,.08l-.66.32v.18l-.21.11,0,.07-.15.07,0,.07-.51.25,0,0-.36.22s0,0,0-.06l-.14.09-.05-.07-.62.38a3.53,3.53,0,0,0-1,.54l0-.06-.14.07a.25.25,0,0,0,0-.07l-.66.31-.9,1a4.17,4.17,0,0,1-.42.25,11.48,11.48,0,0,1-1.74.51c-.39.19-.77.4-1.16.6l-.15-.09-.48.3-.16-.1c-.16.1-.32.2-.47.31l-.05-.08-.14.09,0-.07-.48.3-.26-.12-.42.25,0-.06-.28.16L134.4,63l-.41.25a1.19,1.19,0,0,1-.15-.09l-.62.38a.21.21,0,0,1,0-.06l-.67.31,0-.06-.13.08,0-.07-.48.3-.05-.07-.32.1,0-.07-.28.18-.15-.1-.34.22,0-.07-.13.08,0-.07-.34.22-.27-.13c-.13.06-.26.1-.39.15s0,0,0-.07l-.13.08a1.29,1.29,0,0,1-.16-.09c-.2,0-.3.2-.53.23l-.15-.09-.41.26c0,.19,0,.38,0,.57l-.21.12c-.09.21.08.44.25.7h.29l0,.07.39-.15.49.17.21-.13.15.1.27-.17.16.09.39-.14.26.12.88-.44,0,.06.14-.08,0,.07a1,1,0,0,1,.22-.13l.26.12.74-.36a.16.16,0,0,0,0,.07l.13-.09.05.07.89-.55.05.07.59-.27.15.09.28-.17.16.09.68-.42a.16.16,0,0,1,0,.07l.33-.1a.43.43,0,0,1,0,.07l.55-.34,0,.06.21-.13a.43.43,0,0,0,0,.07l.28-.17.27.12.55-.34a.25.25,0,0,0,0,.07,1.37,1.37,0,0,0,.2-.13.25.25,0,0,1,0,.07.34.34,0,0,0,.14-.09l.05.07.48-.29.05.07,1.92-1.19a.21.21,0,0,1,0,.06l1-.68h0l0,.06.25-.15v0c.11-.06.24-.11.36-.18s0,0,0,.07l.9-.47h0l.17-.1.47-.25a.05.05,0,0,1,0,0l.35-.21s0,0,0,.06l2.44-1.59,0-.07,1.13-.79c.38-.41,0-.07-.09-.16a3.74,3.74,0,0,0,.25-.29l.16-.1a1.66,1.66,0,0,1,0-.24l.15-.09V57l.07,0c0-.1,0-.21,0-.31l.15-.09c0-.19,0-.38.05-.57s-.13,0-.09-.07l.15-.09a1,1,0,0,0,0-.17h.08c0-.1,0-.21,0-.32h.09a.71.71,0,0,1,0-.15h.08l0-.31h.08c0-.12,0-.22.06-.33h.08c0-.08,0-.16,0-.25h.09c0-.24,0-.47-.07-.72h.09s0-.1,0-.15h.09c0-.18,0-.37,0-.56h.08c0-.11,0-.22,0-.33H150c0-.19,0-.38,0-.56H150c0-.05,0-.1,0-.15h.08c0-.16,0-.32,0-.48h.09c0-.06,0-.11,0-.17h.09c0-.27-.05-.53-.06-.8l.15-.09-.06-.8h.08c0-.19,0-.38,0-.57l.16-.09a3.16,3.16,0,0,1,0-.32h.08l0-.4h.09c0-.29,0-.59,0-.88h.08l0-.55h.09l0-.32h.08c0-.16.09-.33.12-.49h.09c0-.08,0-.16,0-.23h.08s0-.11,0-.16h.09c0-.21,0-.42-.05-.63h.08a1.64,1.64,0,0,0,0-.23h.09c0-.17,0-.33,0-.48h.08l0-.4h.08c0-.11,0-.21,0-.32h.08c0-.16,0-.32,0-.47a.51.51,0,0,1,.16-.09,1,1,0,0,1,0-.17h.07c0-.18,0-.37,0-.56h.08c0-.11,0-.22,0-.33h.08l0-.4h.08v-.17h.08l0-.64H152a.86.86,0,0,0,0-.16H152c0-.1,0-.21,0-.31h.08c0-.21,0-.42,0-.64h.08c0-.1,0-.21,0-.31h.08a.93.93,0,0,1,0-.24h.08c0-.19,0-.37,0-.56h.07c0-.17,0-.32,0-.48h.09c0-.32,0-.65,0-1l.16-.1a1.62,1.62,0,0,1,0-.31h.07l0-.4h.09c0-.42,0-.85,0-1.28h.07c0-.16,0-.32,0-.48h.08l0-.72h.08c0-.4,0-.81,0-1.21,0,0-.11,0-.09-.15h.08c0-.53,0-1.07,0-1.6h.08c0-.53,0-1.06-.05-1.6h-.07s0-.06,0-.08h.08c0-.32,0-.64,0-1h-.08a1,1,0,0,1,0-.56h.09c0-.32-.05-.64-.08-1a.22.22,0,0,0,.08,0c0-.21,0-.42,0-.64h.08A.9.9,0,0,0,152.76,25.16Z"></path><path class="cls-1" d="M125.27,13.9h.25l.32.47h.48a.8.8,0,0,0,.08-.16c.22-.09.4,0,.57-.07l.09-.16h.16v-.08l.4-.08.17-.24h.4a.11.11,0,0,0,0-.08h.17v-.08h.4a1.29,1.29,0,0,0,.09-.16h.32a.11.11,0,0,0,0-.08l.33-.08v-.08h.57V13h.16v-.08l.73-.08v-.07h.73l.09-.17h.48l.09-.16h.32v-.09h.48a2.07,2.07,0,0,0,.17-.24h.57v-.08h.16V12h.57a1.19,1.19,0,0,0,.08-.16h.58a1.07,1.07,0,0,1,.07-.15l1.3-.08c.7-.18,1.71.07,2.52,0s2.18-.07,3-.29h.73a.27.27,0,0,0,0-.09h.17v-.08h.57V11l1.87.1a.2.2,0,0,0,0,.07h.57v.09h.16v.08h.24l.08.16h.74s0,0,0,.08h.16a.8.8,0,0,1,.08.16h.57l.08.15h.25v.09a.75.75,0,0,1,.15,0s0,0,0,.08h.25v.08H149l.4.57H150a.67.67,0,0,0,.16.4c.42,0,.31,0,.57-.16,0-.4,0-.55-.32-.63a1.87,1.87,0,0,0-.15-.8l-.25-.17v-.24l-.15-.08a.75.75,0,0,1,0-.15l-.24-.17s0-.06,0-.08h-.17l-.32-.41h-.16a10,10,0,0,0-2-.65l-1.38-.1V9.46l-2.93-.11a.21.21,0,0,1,0,.08h-.4a.21.21,0,0,1,0,.08h-.73v.07h-.25a.27.27,0,0,1,0,.09l-.64,0v.08h-.81v.08l-1.22-.1V9.8l-2.27,0v.08h-.58v.09h-.16V10h-.24a.21.21,0,0,1,0,.08h-.65l-.16.23h-.33v.09h-.24v.08h-.65a.17.17,0,0,1,0,.07l-.32.08v.08h-.81a1.19,1.19,0,0,0-.08.16h-.33l-.08.16-.65.07v.08h-1.06v.08h-.16v.08l-.81.07-.17.24h-.24v.07h-.16v.08l-1,.07a1.84,1.84,0,0,0-.17.25l-.41.07c0,.05,0,.1-.08.16h-.33c0,.06,0,.11-.08.16h-.24l-.33.4-.41.07a.19.19,0,0,0,0,.08l-.25.16C125.11,13.49,125.09,13.78,125.27,13.9Z"></path><path d="M52.57,0C34.11,0,19.08,15.81,19.08,35.24s15,35.24,33.49,35.24,33.5-15.81,33.5-35.24S71,0,52.57,0Zm0,68.64c-17.45,0-31.65-15-31.65-33.4s14.2-33.4,31.65-33.4,31.66,15,31.66,33.4S70,68.64,52.57,68.64Z"></path><path d="M98.83,26.22a81.29,81.29,0,0,0-6.63-7A73.69,73.69,0,0,0,84,12.53a36.88,36.88,0,0,1,0,44.85,73.69,73.69,0,0,0,8.21-6.66,82.77,82.77,0,0,0,6.63-7A74,74,0,0,0,105.15,35,71.89,71.89,0,0,0,98.83,26.22Z"></path><path d="M21.29,12.34c-.56.39-1.14.8-1.71,1.23A70.52,70.52,0,0,0,13,19.1a81.56,81.56,0,0,0-6.63,7.06A74.18,74.18,0,0,0,0,35a75.36,75.36,0,0,0,6.32,8.79A81.83,81.83,0,0,0,13,50.8a73.81,73.81,0,0,0,6.63,5.55c.57.42,1.14.83,1.71,1.21a36.91,36.91,0,0,1,0-45.22Z"></path><path d="M55.7,11.19a38.89,38.89,0,0,0-1-4,27.57,27.57,0,0,0-1.19-3.32c-.07-.18-.15-.35-.23-.53l0-.07,0-.11L53,2.85l-.4-.58-.45.63L52,3.14l0,.11,0,.08c-.08.17-.16.34-.23.52a28.2,28.2,0,0,0-1.19,3.32,38.89,38.89,0,0,0-1,4,53.42,53.42,0,0,0-1,8,52.48,52.48,0,0,0,.43,7.84l0,.19a42.75,42.75,0,0,0,1.44,8,22.93,22.93,0,0,1,.82,7.94,24.69,24.69,0,0,1-1,4.58,31.51,31.51,0,0,0-.86,3.41,16.32,16.32,0,0,0-.2,4,35.8,35.8,0,0,0,.4,4,26.82,26.82,0,0,0,2.14,7.36l.26.52,0,.07,0,.11.07.13.15.22.37.52h0l.42-.56.11-.18.07-.13s0-.07,0-.1l0-.08c.08-.18.17-.35.25-.52a26.82,26.82,0,0,0,2.14-7.36,35.29,35.29,0,0,0,.4-4,16.26,16.26,0,0,0-.2-4,33.12,33.12,0,0,0-.85-3.4,23.27,23.27,0,0,1-1-4.59,22.66,22.66,0,0,1,.81-7.94,42.78,42.78,0,0,0,1.45-8V27a52.21,52.21,0,0,0,.43-7.82A52.32,52.32,0,0,0,55.7,11.19Z"></path></g></g></symbol>
<symbol id="logo-main" viewBox="0 0 206.27 196.63"><g id="レイヤー_2" data-name="レイヤー 2"><g id="レイヤー_1-2" data-name="レイヤー 1"><g id="グループ_183" data-name="グループ 183"><g id="logo2"><g id="グループ_181" data-name="グループ 181"><path id="パス_1" data-name="パス 1" class="cls-1" d="M171.87,168.34v-.59h-.05v-.12h-.06v-.53c-.06-.18-.12-.36-.17-.53l-.12-.06v-.24l-.18-.12-.06-.18h-.06c0-.07,0-.15,0-.23l-.3-.24-.06-.12h-.12l0-.12h-.12v-.06l-.41-.06v-.06h-.12V165h-.65V165h-.17v-.06a1.3,1.3,0,0,0-.65.11h-.42a.06.06,0,0,1,0,.06h-.11v.06h-.42v.07h-.35v.06h-.12v.06h-.23v.06h-.12v.07h-.24l-.12.17-.18.06v.12c-.06.06,0,0-.06.11.16.13.16.25.41.3a.9.9,0,0,0,.12.24l1.24-.11.06-.11,1-.05v.06h.47v.06h.24v.06h.17v.06h.12l.29.36h.06l.06.3h.06v.12h0v.18h.06v.17h.05a.54.54,0,0,1,0,.18h.06v.59a3.51,3.51,0,0,1,.11,1.07v.59a6,6,0,0,1,.05,1.53h-.07c0,.28,0,.55-.06.83l-.12.06c-.05.47-.09.94-.13,1.41a4.26,4.26,0,0,0-.13.94c0,.2,0,.4,0,.6s0,.86-.06,1.18h-.06v.3h-.06c0,.28,0,.55,0,.82H170V178H170c0,.25,0,.51-.07.76h-.06v.18h-.06l-.06.47h-.06v.36h-.06c0,.2-.05.39-.07.58h-.06v.24h0v.18h-.06a1.09,1.09,0,0,0,0,.17h-.06v.18h-.05c0,.21-.05.43-.07.65h-.06v.12h-.06V182H169c0,.1,0,.2,0,.3H169v.12a0,0,0,0,1-.05,0v.42h-.06v.18h-.06v.29h-.06a.24.24,0,0,0,0,.12h-.06v.23h-.06c0,.14,0,.28,0,.42h-.06v.12h-.06c0,.1,0,.2,0,.3h-.05v.3h-.06c0,.13,0,.27,0,.41h-.06v.18h0c0,.1,0,.2,0,.3l-.12.05-.12.59h-.06v.12h-.06c-.06.35-.12.7-.19,1.05h-.06v.12h-.06V188l-.12.06-.06.53h-.06v.18h-.06c0,.16,0,.31-.07.48h-.05c0,.22,0,.43-.07.65H167V190H167v.42h-.06v.17h-.06l-.12.71-.13.06v.3h-.06v.53l-.17.11v.12h-.06v.18h-.06a.21.21,0,0,0,0,.11h-.06a1.08,1.08,0,0,0,0,.18h-.06c0,.21-.05.43-.07.65H166l-.12.53h-.06l-.06.24h-.06c0,.14,0,.27,0,.41h.06c.1.37.2.11.41.24V195a.86.86,0,0,0,.77-.41l.12-.05v-.18l.12-.06v-.11h.05V194l.13-.06.06-.41c0-.07-.09,0-.06-.06l.12-.06v-.11h0V193h.06v-.12h.06v-.23h.06l.06-.24h.06v-.17h.06c0-.18,0-.36,0-.53h.05v-.12H168c0-.14,0-.28,0-.42h.06l.06-.23h.06v-.41h.06v-.12h.06v-.36h.06V190h.06v-.59l.12-.06v-.58h.06l.06-.41.12-.06V188h.06v-.3h.07l.06-.64H169l.06-.41h.06v-.24h.06l.12-.35h.06v-.18h.06v-.11a.06.06,0,0,1,.06,0v-.48h.06v-.17h.06v-.36h.06v-.3h.06v-.23h.06v-.36l.12-.05v-.12H170v-.41h.06v-.24h.06v-.3h.06v-.12h.06l.06-.47h.06a.49.49,0,0,1,0-.12h0v-.24h.06c0-.15,0-.31,0-.47h.06v-.23h.06V181h.06v-.41h.05c0-.12,0-.24,0-.36h.06l.06-.71.12-.06v-.23H171v-.3h.07l.06-.94h.06c0-.12,0-.24,0-.36h.05c0-.18,0-.35.07-.53h.06l.06-.88s-.07,0-.05-.12h.05c0-.39,0-.78.08-1.18h.06l.06-1.18a0,0,0,0,1,0,0v-.06h.06l.06-.7h-.06a1,1,0,0,1,.06-.42h.06c0-.23,0-.47,0-.7h.06c0-.16,0-.32,0-.48h0a.6.6,0,0,0,0-.35h.06v-.77h-.06c0-.14,0-.28-.05-.41h.06v-.12h.06c.06-.19-.08-.28-.06-.42h.06A2,2,0,0,0,171.87,168.34Z"></path><path id="パス_2" data-name="パス 2" class="cls-1" d="M172.88,155.43v-.12a.42.42,0,0,0-.3.12v0h-.23v.06a.58.58,0,0,0-.24.53c-.12,0-.05,0-.12-.06s-.39,0-.59.06l-.12.17-.53.11c-.05.08-.08.16-.12.24h-.24v.06l-.24.17V157l-.36.05a1.33,1.33,0,0,1-.41.53v.06l-.36.06c-.07.05-.07.22-.12.29l-.36.29v.12l-.59.41c0,.06,0,.25-.12.3l-.35,0-.06.18-.18.12v0h-.18v.06l-.12.06v.12l-.11.06a2.66,2.66,0,0,0-.42.52h-.12v.12h-.12c0,.08-.08.16-.12.24h-.12v.06c-.17.1,0-.05-.17.11h-.06v.24l-.18.06v.06l-.18.12v.11l-.18.12c0,.12,0,.18.06.24h-.12v.12l-.3.11c-.06.07,0,.15-.06.24h-.06l-.11.17h-.12v.06h-.12l-.24.3-.12.06-.06.17-.35.12c-.08.06,0,.14-.06.24a.78.78,0,0,0-.18.11l-.06.24-.18.06c-.07.05-.08.22-.12.29h-.06l-.24.29h-.12l-.06.23c-.2,0-.26.15-.29.36h-.13c-.08.09-.16.2-.23.29h-.08v.18l-.12.06-.12.17c-.16.11-.24.07-.3.29a1.06,1.06,0,0,0-.35.18c0,.1-.05.2-.07.3a.73.73,0,0,0-.41.23v.17h-.06c-.09.11-.15.14-.18.3H160a2.07,2.07,0,0,1-.18.47h-.06v.12l-.18.11V168l-.12.06-.06.23c-.1.15-.23.1-.3.35a1.28,1.28,0,0,0-.66.71h-.11c0,.17-.09.12-.12.17v.24l-.41.35h-.13a1.3,1.3,0,0,1-.18.46h-.06v.12l-.11.06v.12a1.88,1.88,0,0,0-.18.12V171H157l-.06.12h-.06l-.06.23-.18.12v.11h-.05c0,.12,0,.24,0,.36l-.47.29v.06l-.18.12c-.15.26.15.3-.24.41a2,2,0,0,1-.78.93V174h-.12V174l-.17.12v.12l-.12.05v.12l-.12.06a2.1,2.1,0,0,0-.06.24.34.34,0,0,0-.12.06v.11a.06.06,0,0,1-.06,0v.18l-.3.06-.3.52-.23.12c0,.1,0,.2-.07.3s-.2,0-.23.35c-.25.07-.07,0-.18.18l-.13.05v.13l-.41.34v.18l-.24.11v.13H152v.11H152v.18h-.06a2.1,2.1,0,0,1-.06.24h-.06v.11l-.23.12c0,.08,0,.16,0,.24h-.05v.12a.94.94,0,0,0-.18.12v.11l-.12.06c0,.1,0,.2-.06.3l-.12.06v.12H151v.11l-.48.41v.18l-.12.06v.12h-.06v.17l-.3.17c-.06.08,0,.15-.06.24l-.18.12a1.22,1.22,0,0,0-.3.65l-.18.05-.06.18.06.35c0,.06-.18,0-.24.06v.06l-.11.06v.12l-.12.05a1.27,1.27,0,0,0-.06.18h-.06l-.07.18c-.23.07-.07,0-.17.17h-.06a.24.24,0,0,0,0,.12l-.18.11v.12l-.18.12v.12l-.12,0c-.07.11,0,.28-.06.42l-.36.23v.18c-.12,0-.05,0-.12,0a.06.06,0,0,1-.06,0V185l-.47.41-.06.24-.12.05-.06.18h-.06v.18l-.42.35v.12l-.11,0c0,.08,0,.16,0,.24l-.3.23c0,.1,0,.2-.07.3l-.23.18c0,.17-.08.35-.13.53-.32.09-.11.15-.24.35l-.35.29v.18l-.41.35v.17h-.06v.12h-.07v.18l-.18.12v.12l-.11,0v.24l-.12.06v.23l-.12.06-.06.18-.17.11c0,.08,0,.16-.07.24h-.06v.12a.3.3,0,0,0-.11.06,2.46,2.46,0,0,0-.07.29H143v.17l-.12.06-.06.24c-.32.1-.06.08-.18.29l-.17.12a.87.87,0,0,0-.07.17l-.11.06c-.13.16-.09.25-.07.41l-.23.18c-.05.14-.08.27-.12.41l-.12.06v.12l-.12,0-.06.24h-.06v.29h-.06v.12l-.12.06v.12h-.06v.12h-.06v.23l-.19.12c-.15.24,0,.35-.3.53a1.57,1.57,0,0,0,.11.83h.47v.06c.34,0,.49,0,.59-.24v-.3c.09-.05.16-.11.25-.17v-.18l.11-.05v-.13h.06v-.11h.06l-.06-.18.13-.05v-.12l.12-.06v-.12h.06a2.1,2.1,0,0,1,.06-.24h.06v-.17h.05v-.12h.06v-.11h.06v-.12l.12-.06v-.3l.12-.05c0-.12.08-.24.13-.36l.17-.11v-.12l.24-.17v-.18h.05a1.56,1.56,0,0,0,.3-.76.64.64,0,0,1,.18-.06,4.21,4.21,0,0,1,.12-.48,2.07,2.07,0,0,0,.24-.17v-.12h.06V191l.24-.17c.09-.17,0-.4.06-.53l.24-.12v-.12l.12,0c0-.06,0-.13.06-.18h.06a2.17,2.17,0,0,1,.07-.24l.23-.11.06-.24.12-.06.06-.29H146a1.21,1.21,0,0,1,.05-.18h.12a6.88,6.88,0,0,0,.24-.65h.12c0-.08.05-.16.06-.23h.06v-.18l.12-.06v-.23h.06a.55.55,0,0,0,.12-.24h.12l.36-.41h.06l.06-.35.36-.29V186l.12-.06.12-.35.11-.06v-.12l.24-.17a.64.64,0,0,0,.06-.18l.13-.06c0-.1,0-.2.05-.3l.12-.05c0-.08,0-.16.07-.24.18-.29.51-.48.6-.88h.12c.08-.05,0-.15.06-.23l.17-.12V183H150v-.12H150v-.23h.06a.55.55,0,0,0,.12-.24c.36-.09.11-.11.24-.35l.24-.18v-.11l.12-.06v-.12l.24-.17.06-.24.3-.23v-.18l.12-.06v-.12l.17-.11v-.12h.06v-.12h.06v-.18L152,180l.06-.23.12-.06v-.11h.06l.06-.18c.23-.06.08,0,.18-.18h.06v-.17l.18-.11c0-.16,0-.32.06-.47.24-.07.23-.18.36-.36l.17-.11v-.18l.24-.11c0-.1,0-.21.06-.3l.12-.06v-.12l.18-.12a1.93,1.93,0,0,0,.42-.7c.34-.08.12-.1.24-.29l.18-.11V176h.12c.08-.1.16-.19.23-.29h.12a.65.65,0,0,1,.3-.53v-.06l.18-.06.06-.29a.67.67,0,0,1,.12-.06,1.26,1.26,0,0,0,.36-.47c.14,0,.13-.06.23-.12v-.23c.32-.08.13-.1.24-.29h.06l.06-.18c.35-.09.14-.22.3-.41l.3-.24v-.11l.12-.06v-.18l.3-.23c.12-.19,0-.33.06-.47l.18-.06.06-.12.12,0c0-.12,0-.24-.06-.36l.54-.18v0l.12-.05v-.24l.29-.18v-.12l.13-.11v-.12h.06v-.12h.06v-.18l.47-.29v-.12l.18-.11.06-.18h.12V169l.12-.05v-.3h.06v-.13h0a.43.43,0,0,0,0-.16l.18-.07.06-.11h.12l.12-.24H161l.06-.3c.24-.06.28-.2.36-.41h.12c.08-.34.18-.25.42-.41a1.81,1.81,0,0,1,.18-.23h.05l.06-.12h.12a1.89,1.89,0,0,0,.24-.47.74.74,0,0,0,.6-.7c.34,0,.2-.13.35-.29l.18-.05c.08-.07.07-.22.12-.3h.06a.91.91,0,0,0,.25-.41.46.46,0,0,0,.35-.41c.21-.05.26-.15.42-.23v-.18h.18v-.06c.16,0,.14-.07.23-.17h.06V163l.3-.18v-.18c.15,0,.1,0,.18-.11H166v-.12H166v-.18h.06l.12-.17h.12V162l.18-.12v-.12h.06v-.11l.71-.59v-.18l.18-.11.06-.18h.18l.18-.23h.05v-.12l.3-.18.3-.41h.12l.12-.17H169l.3-.36V159c.12-.18.27-.05.36-.35.28,0,.23-.12.35-.29l.13-.06v-.12h0v-.12c.07-.08.15,0,.24-.06a.81.81,0,0,0,.24-.53.88.88,0,0,0,.53-.11v-.06h.3v-.06a.26.26,0,0,0,.18-.23.33.33,0,0,0,.24-.12h.06v-.17h.23l.24-.3h.06l.06-.18h.24s.07-.11.12-.17H173V156h.12V156l.18-.06.06-.23C173.1,155.67,173.06,155.54,172.88,155.43Z"></path><path id="パス_3" data-name="パス 3" class="cls-1" d="M110.67,162.62v0h.3v.06c.41.13.7-.15.94-.22h.36v-.06h.11v-.06h.42l.06-.12h1.06v-.06H114a.07.07,0,0,0,0-.05h.41v-.06h.3l.06-.12h.41a.06.06,0,0,0,0-.06l.77.12.59-.05v.06h.17v.06H117v.06h.41l.06.12c.22.1.2-.1.35.12a.57.57,0,0,0,.42-.11.75.75,0,0,0-.06-.42l-.11-.06v-.24H118l-.06-.17a2.1,2.1,0,0,0-.24-.06l0-.12h-.42l-.17-.24-.71-.06a5.83,5.83,0,0,0-1.77-.19c-.17.15-.61,0-.88.1v.06h-.59V161H113a.24.24,0,0,1-.06.11l-1.71.22c-.32.13-.46.59-.77.77C110.42,162.4,110.41,162.56,110.67,162.62Z"></path><path id="パス_4" data-name="パス 4" class="cls-1" d="M117.11,167.69c.3,0,.23,0,.41-.11,0-.31,0-.23-.11-.41-.22,0-.27,0-.36.11h0v-.23h-.06c-.17-.21-.07,0-.24-.12s-.11-.17-.17-.24h-.29a.27.27,0,0,1-.06-.12h-.48v.06h-.18v.06h-.06v-.06h-.35v.06h-.41v-.06l-1.83-.08c-.25.21-1.16-.07-1.53.05v.06h-.18l-.06.11h-.18v.06l-.24.18c0,.11,0,.05-.06.11,0,.32,0,.4.17.54v.06h.3l.06.11h.18v.07l1.3,0v-.06a3.63,3.63,0,0,1,1.23.07c.22.06.39-.07.54,0s0,0,.06,0l.94,0v-.07h.71v-.06h.3l.06-.12c.28-.12.29.12.47-.18H117v.18S117.07,167.63,117.11,167.69Z"></path><path id="パス_5" data-name="パス 5" class="cls-1" d="M150.39,168h.53V168a.53.53,0,0,0,.42.13v-.06h.12V168h.23V168h.12v-.05l.59-.12v-.06h.12l.06-.11h.17v-.06l.24-.06v-.06h.3v0h.18v-.06h.18v-.06h.23v-.06h.24v-.06h.29v-.06l.89,0V167h.12l.06-.12h.12v-.06l.7-.05.06-.11c.12,0,.3.15.48.06a.06.06,0,0,1,0-.06l.17-.06v-.41h0c-.2-.27-.09-.07-.36-.18v-.06h-.11v-.06l-.36.06-.59-.06v.05h-.23V166a.09.09,0,0,1-.12-.06l-.53.06v.06h-.36v.06h-.06c-.1,0-.28-.18-.46-.13V166l-.24.06v.06h-.41a.06.06,0,0,0,0,.06H153v.06h-.35v.06h-.12v0h-.24l-.06.12c-.1,0-.2,0-.3.06v.06h-.12v.06h-.42v0h-.12v.06h-.23v.05l-.24.06V167h-.12l-.12.18h-.06v.11l-.3.24a1,1,0,0,0,.06.41C150.38,167.92,150.39,168,150.39,168Z"></path><path id="パス_6" data-name="パス 6" class="cls-1" d="M67.06,192.82h.35a.44.44,0,0,0,.08.11.7.7,0,0,1,.1-.16v-.13C67.63,192.59,67,192.88,67.06,192.82Z"></path><path id="パス_7" data-name="パス 7" class="cls-1" d="M96.74,186.56l-.06.12H96.5c0,.07-.08.12-.12.18h-.12s0,.08-.11.12-.05.23-.07.35a.59.59,0,0,0-.29.18v.05l-.36.12-.36.41H95l-.18.23h-.12l-.3.35-.24.18v.06H94V189c-.08.07-.07,0-.11.17a.91.91,0,0,0-.42.23l-.06.12h-.18s0,.08,0,.12l-.36.11-.18.23-.24.06a1.88,1.88,0,0,1-.12.18l-.17.11a.06.06,0,0,0,0,.06H92l-.24.29h-.12l-.12.18h-.12l-.06.12h-.12l-.12.11H91v.06h-.11l-.06.12h-.18l-.12.18h-.18a1.77,1.77,0,0,1-.12.17l-.17.06v.06c-.14.08-.3,0-.48.05a.06.06,0,0,1,0,.06.85.85,0,0,1-.4.06.06.06,0,0,1,0-.06c-.54,0-.57-.18-.88-.36,0-.6,0-1.33,0-2l-.06-.65h.06c.11-.36,0-.91.07-1.23s-.17-.49-.11-.66l.12-.05v-.12h.06c0-.28,0-.55,0-.83l.12-.06v-.53h.06v-.41h.06v-.18h.06c0-.19,0-.4,0-.59l.11-.06c0-.18,0-.36,0-.53h.06v-.12h0v-.35h.06v-.18H89c0-.16,0-.31,0-.47a3.48,3.48,0,0,0,.19-1.06c0-.24,0-.47.07-.71h0v-.41h.06l.06-.24h.06c0-.39.05-.79.07-1.18h.06v-.35c0-.08-.07,0-.06-.06h.06v-.29h.06v-.35a.06.06,0,0,1,.06,0l-.06-.65-.29-.42h-.47l-.06.12h-.18a.43.43,0,0,1-.12.11c0,.42,0,.59.35.66a.57.57,0,0,1-.12.23h-.06v.36l-.12,0v.42h-.06l-.06.23h-.06v.24h-.06c0,.63-.05,1.26-.08,1.89h-.06v.46h-.06v.36h-.06v.29h-.06v.18H88c0,.18,0,.36,0,.53h-.06V183h-.06v.23h0v.12h-.06c0,.13,0,.28,0,.41h-.06v.17h-.05v.36h-.06v.29H87.5v.18h-.07V185h-.06v.41h-.06a1.09,1.09,0,0,1,0,.18h-.06v.47h0v.35l-.12.07c0,.35,0,.7-.07,1.06h0c0,.07,0,.15,0,.23h-.06a.47.47,0,0,0,0,.35h.06v.06H87v.41h-.06c0,.28,0,.56,0,.83a7.56,7.56,0,0,0,.17,2.07c.08.33-.06.57.1.83l.35.3.06.11h.12l0,.12H88l.06.12h.12a.06.06,0,0,0,0,.06l.23.06v.06h.77l.65,0,.06-.12h.36a.61.61,0,0,1,0-.12h.24a.67.67,0,0,0,.06-.12h.24l.06-.11h.17l.12-.18h.12l.06-.11.36-.12.11-.18H92l.12-.17h.12l.24-.3.24-.06a1.17,1.17,0,0,0,0-.11h.18l.3-.35h.12l.12-.18.18-.06.06-.11h.12a1.88,1.88,0,0,1,.12-.18h.11c0-.06.08-.12.13-.17h.11a1.4,1.4,0,0,1,.12-.18h.12l.12-.18h.12l.18-.23h.12l.18-.24.23-.05.24-.3h.12l.3-.35h.18a.06.06,0,0,1,0-.06l.18-.12v-.17c.32-.08.21-.2.35-.42L97,188v-.35l.12-.06c.11-.16.08-.3.24-.42a1,1,0,0,0-.22-.7C96.93,186.45,96.86,186.46,96.74,186.56Z"></path><path id="パス_8" data-name="パス 8" class="cls-1" d="M98.09,156.65v.06H98v.06h-.24l-.06.12-.24.17a.06.06,0,0,1,0,.06h-.12c-.06.08-.11.16-.17.23l-.24.07-.3.4-.53.41v.12l-.36.29v.12l-.24.17v.12a2.07,2.07,0,0,1-.24.17,1.34,1.34,0,0,1-.06.12h-.12a2,2,0,0,1-.17.23h-.06v.13l-.18.11v.12l-.3.23v.12c-.19.05-.21.15-.36.23v.24c-.16,0-.15.06-.24.17h0v.17c-.14.13-.28.24-.42.35v.12l-.12.06v.18l-.12.06V162l-.12.12h-.11v.06l-.18.12v.17l-.12.06v.12c-.06.07-.22.06-.3.11L92,163l-.12.06-.06.18a2.07,2.07,0,0,0-.24.17v.06c-.17.11-.24.06-.3.29H91.2v.06c-.12.1-.24.19-.36.3v.11l-.12.12H90.6v.06l-.17.12v.12l-.12,0v.06c-.16.14-.29.1-.36.36l-.3,0v.06l-.12.06v.12l-.3.17v.18c-.33.09-.25.3-.41.52l-.24.18v.12l-.3.23v.12l-.42.29v.12a1.88,1.88,0,0,0-.18.12l-.12.35-.18.12v0h-.12l-.42.47-.17.06-.36.41h-.06v.23l-.3.24v.11l-.18.12v.23c0,.09-.15,0-.23.07s-.06.08-.12.11v.18c-.34.08-.13.1-.24.29l-.24.17v.18h-.06l-.06.18a.34.34,0,0,0-.3.29.45.45,0,0,0-.36.35c-.17,0-.19.06-.24.24s-.16.1-.29.17v.24c-.23.05-.24.16-.36.34h-.06v.12l-.17.06v.06l-.18.11v.12l-.41.35a.24.24,0,0,0,0,.12l-.13.06v.23l-.11.06a.82.82,0,0,0-.24.48c-.15,0-.1,0-.18.11h-.06v.12l-.18.12v.11l-.12.06-.18.23h-.12a1.74,1.74,0,0,0-.11.18c-.25.23-.58.43-.67.82h-.11v.06l-.29.24a1.77,1.77,0,0,0,0,.23l-.3.23V177h-.12l-.12.12v.11l-.12.06a1,1,0,0,0-.3.53,1,1,0,0,0-.41.29v.06h-.12l-.06.11h-.06l-.12.36a.32.32,0,0,0-.3.29v.17h-.06c-.11.15-.21.17-.24.42-.26.06-.22.22-.36.41l-.12.05a1.13,1.13,0,0,0-.3.53,1.45,1.45,0,0,0-.71.77c-.17,0-.15.06-.24.16h-.06v.18l-.35.29V182l-.42.35v.12l-.12.06-.18.23-.18.12V183l-.18.11v.3l-.35.29A1.05,1.05,0,0,0,74,184l-.12.06v.11l-.54.41v.18l-.11.06v.12l-.24.17v.18l-.48.41v.18c-.21.2-.43.38-.65.58v.18l-.24.11-.24.3-.12.06v.17l-.53.47v.24l-.42.35c0,.11,0,.23-.07.35s-.35.31-.53.46v.12l-.12.06v.12l-.12.06-.06.29-.18.12-.06.17H69.1l-.06.24-.24.18-.06.23-.18.12v.12a.43.43,0,0,1-.12,0v.12l-.12.06a1.27,1.27,0,0,1-.06.18h-.05c-.08.12,0,.27-.07.41l-.23.18v.12h-.07v.23h-.06v.35a.39.39,0,0,1-.11.06c.08,0,0,.06,0,.13V193l.35.07v.06c.31,0,.29-.14.42-.35h.06v-.12h0a.53.53,0,0,1,0-.12h0l.06-.11h.12l.12-.12v-.12l.24-.17v-.12l.18-.12.06-.29.12-.06v-.12l.24-.17v-.13l.42-.34v-.12l.18-.12v-.23a.21.21,0,0,1,.11,0c.09-.1.16-.2.24-.3h.06v-.12l.42-.34v-.13l.17-.11V189l.12-.05v-.12l.12-.06v-.12l.36-.29v-.18H72l.06-.12h.12l.12-.18c.14-.11.27-.23.42-.34s.19-.4.41-.53v-.18a.59.59,0,0,0,.42-.53h.12v-.06l.18-.11V186l.42-.35a2.1,2.1,0,0,1,.06-.24c.3-.07.16-.15.3-.35l.41-.35v-.23l.12-.06.12-.17h.06v-.12l.24-.18v-.2h.06v-.12h0a1.09,1.09,0,0,1,0-.18l.23-.11.18-.24.12-.05v-.12l.12-.06v-.06l.36-.29.06-.12h.11a.7.7,0,0,0,.19-.47h.11v-.06l.54-.47.06-.3h.06c.16-.17.33-.19.36-.52.17,0,.19-.06.24-.23a.36.36,0,0,0,.3-.29v-.18l.12-.06.12-.11v-.12c.1-.09.2-.16.3-.24l.18-.47h.18v-.06l.12-.05v-.12l.18-.12v-.18l.17-.05a.94.94,0,0,0,.12-.18l.36-.29v-.06l.24-.18v-.17l.47-.41v-.18l.3-.17c0-.08,0-.17.07-.24l.65-.58v-.12l.18-.12v-.12l.12-.05v-.18l.47-.35a1.68,1.68,0,0,0,.06-.24l.18-.11v-.18l.3-.17V174l.12-.06c.18-.19.32-.19.36-.53.33-.08.44-.43.66-.63l.35-.3v-.18l.18-.11V172l.18-.12v-.16a1.69,1.69,0,0,0,.36-.17,1.25,1.25,0,0,0,.12-.54c.22,0,.25,0,.3-.23.22,0,.26,0,.3-.23.36-.1.1-.11.24-.35l.24-.18.06-.11.35-.29v-.12l.18-.12a.06.06,0,0,1,0-.06l.17-.06.12-.23h.12l.24-.29.11-.06a.24.24,0,0,0,0-.12l.13-.06a1,1,0,0,1,.06-.23l.11-.06v-.12l.18-.06V168c.1-.09.13-.07.18-.23.33-.09.21-.2.36-.41l.41-.29V167l.3-.24c.13-.17.09-.22.3-.34v-.18a.51.51,0,0,0,.23-.12V166h.18l.12-.17H91v-.12l.41-.29v-.12l.48-.4a1.74,1.74,0,0,0,.11-.18h.12l.36-.41h.06v-.12c.24-.06.23-.18.35-.35H93a.65.65,0,0,0,.18-.3c.23-.05.18-.13.3-.29s.16-.11.23-.18V163l.18-.12v-.17l.12-.06a.78.78,0,0,0,.18-.35c.33-.1.12-.1.24-.3l.23-.17v-.12l.54-.47c.16-.15.26-.36.42-.53s.35-.22.42-.46c.14,0,.18-.06.23-.18v-.12l.18-.05.3-.41.18-.06.12-.11v-.12l.18-.06v-.06a2.37,2.37,0,0,1,.3-.23v-.12h0l.19-.24.17-.05.12-.18h.06v-.12l.3-.23v-.12l.12-.06v-.06l.29-.17c.1-.15,0-.11.12-.24a.78.78,0,0,0-.17-.64Z"></path><path id="パス_9" data-name="パス 9" class="cls-1" d="M141.43,161h.17c.09-.09.17-.19.25-.28H142a.94.94,0,0,1,.12-.18h0v-.12a.59.59,0,0,0,.41-.29h.06v-.23l.12-.06a.73.73,0,0,0,.06-.41c.31,0,.24,0,.42-.12,0-.31,0-.24-.12-.41-.3,0-.23,0-.41.11v.24h-.89l-.17.23h-.12v.06c-.09.08-.08,0-.12.18-.33,0-.21.11-.36.29s-.27.2-.42.29v.18c-.37,0-.25.08-.41.29l-.12.06-.06.12h-.18l-.06.11h-.17v.06l-.24.17v.18c-.49.05-.73.49-1,.76s-.35.26-.42.53c-.31.08-.24.29-.41.47l-.18,0-.12.18h-.12v.06H137l-.3.41h-.18a.06.06,0,0,1,0,.06c-.11.08-.13.07-.17.24-.22,0-.26,0-.3.22-.33,0-.63.4-.84.58a.67.67,0,0,1-.06.12.24.24,0,0,1-.12,0l-.12.12v.12h0a.71.71,0,0,0-.12.18l-.3,0v.06l-.18.11-.06.18H134a.67.67,0,0,1-.06.12h-.06v.12l-.18.11v.12a1.88,1.88,0,0,0-.18.12v.12l-.11.05-.18.23L133,167c0,.06-.08.12-.11.18h-.06a1.34,1.34,0,0,1-.07.18h-.11a.7.7,0,0,0-.35.47.89.89,0,0,0-.48.35l-.12,0v.12l-.41.35v.12l-.12.12h-.12L131,169l-.24.18v.12l-.18.11v.12l-.12.06-.18.23h-.06V170c-.1.15-.23.11-.3.35a.64.64,0,0,0-.3.11v.18c-.23.06-.17.14-.3.3l-.3.23v.06h-.12v.05c-.08.08-.08,0-.11.18h-.19v.06a.61.61,0,0,0-.23.41h-.12V172l-.36.29-.06.18h-.18v.05l-.29.24v.17a1,1,0,0,0-.54.36l-.06.11h-.12l-.53.59H126l-.07.11h-.06v.3l-.3.23v.06h-.12l-.3.41-.53.41-.06.24-.12.05v.12l-.77.7v.12l-.19.12a.24.24,0,0,1,0,.12l-.41.29v.11l-.24.18v.12l-.24.17v.12l-.24.18v.11l-.12.06-.18.24-.23.05-.42.47h-.12l-.06.12h-.06v.18l-.35.29v.12l-.54.46v.12l-.3.24v.11l-.42.36a.41.41,0,0,1-.06.11l-.23.06v.06l-.12.06v.11l-.12.06c-.12.17-.12.3-.3.41v.18c-.17,0-.17.1-.3.17v.18c-.18,0-.2.12-.3.23h-.06v.12l-.12.06v.06h-.18a.06.06,0,0,1,0,.06l-.12.06v.12h0l-.25.3h0v.17l-.18.12-.06.18H117a0,0,0,0,0,0,.05l-.18.12v.17l-.18.12v.06h-.11l-.3.41-.18.06a.13.13,0,0,1,0,.06l-.17.11v.12h-.06c-.13.15-.3.26-.36.47-.32.08-.21.2-.35.41l-.19.11c0,.07,0,.12,0,.18l-.36.29v.12l-.54.47v.18c-.15,0-.1,0-.18.11h-.06v.12l-.18.12v.11l-.54.47v.12l-.17.12a0,0,0,0,0,0,0h-.12v.07l-.12,0v.18l-.48.41-.12.35-.47.41c0,.08,0,.15-.07.24l-.29.23-.12.35-.18.12v.11l-.12.06-.54.58-.18.13V192c-.42.09-.5.47-.72.76l-.11.06-.18.23-.24.06-.12.18h-.06v.12h-.06v.11l-.18.12a1.59,1.59,0,0,1-.06.3l-.12.05c-.19.21-.52.46-.6.77h-.06l.06.17h.35a.75.75,0,0,0,.07-.12,3.53,3.53,0,0,1,1.12.07,2.29,2.29,0,0,1,.41-.52l.13-.06v-.12l.35-.29v-.12l.12-.12h.12v0l.24-.18.12-.18h.06v-.11l.29-.24.06-.11h.12a1.34,1.34,0,0,1,.06-.12l.3-.24v-.12l.48-.4v-.18l.17-.11c0-.09,0-.17.07-.24l.47-.41v-.12l.18-.11.06-.24.3-.23v-.12l.12-.06a1.06,1.06,0,0,0,.24-.41c.33-.09.12-.1.24-.29l.41-.35V189c.14-.1.28-.19.42-.3v-.11l.18-.12v-.12l.36-.29c0-.1,0-.19.06-.3l.12-.06a1,1,0,0,0,.3-.41h.12a.34.34,0,0,1,.06-.12h0s0-.07,0-.11l.35-.3v-.12c.15,0,.1,0,.18-.12h.06v-.14l.12-.06.24-.29.53-.47.07-.18h.11l.12-.12v-.12h.06a1.34,1.34,0,0,1,.07-.18h0l.06-.11H118l.12-.12v-.11l.18-.13.06-.23h.06a.55.55,0,0,0,.12-.24c.25-.06.3-.21.41-.4H119v-.12l.36-.29V183l.24-.18v-.11h0a.75.75,0,0,0,.07-.12c.18-.14.35-.09.42-.35.26-.07.3-.3.47-.47l.84-.76v-.17l.41-.35v-.13c.14-.17.33-.09.42-.4h.12v-.06l.35-.29a.24.24,0,0,0,0-.12c.12-.14.22,0,.3-.29.45-.11.53-.66.9-.88v-.17c.31-.07.3-.23.48-.41l.35-.29v-.12h.06l.12-.18.24-.17v-.12l.12-.06.06-.23.35-.29c0-.08,0-.16,0-.24.27,0,.25-.08.41-.17v-.18c.33,0,.33-.2.48-.41l.12-.06v-.12l.24-.17.06-.24.17-.06a.39.39,0,0,0,.06-.11h.18l.54-.59h.12v-.06l.23-.17a.49.49,0,0,1,0-.12L129,173v-.11h.06a1,1,0,0,0,.3-.42c.38,0,.22-.2.41-.34h.13a.06.06,0,0,1,0-.06l.17-.12v-.12l.3-.23v-.12h.06l.12-.18h.12l.12-.17h.06V171l.12-.06a1.31,1.31,0,0,0,.42-.59c.23-.06.22-.21.36-.35l.41-.34c0-.07.08-.12.12-.18h.12v0l.18-.12v-.12l.18-.12V169a1.14,1.14,0,0,0,.47-.34l.06-.12h.12l.18-.23.53-.47v-.11l.66-.59v-.18H135l.65-.58.06-.12h.12L136,166h.12l.12-.12v-.12l.12-.12h.12l.11-.18c.2-.12.28,0,.36-.29.48-.11.68-.54,1.07-.75v-.18c.29-.07.22-.18.36-.35s.23-.16.36-.23v-.18h.17v-.06l.36-.29V163l.12-.06v-.06c.19-.11.21.1.3-.23a1.41,1.41,0,0,0,.53-.41l.06-.11h.18l.12-.18.83-.76Z"></path><path id="パス_10" data-name="パス 10" class="cls-1" d="M42.63,182.54c0-.06,0-.14.14-.22s.2-.12.26-.2.16-.3.35-.46a1.69,1.69,0,0,0,.39-.41,1.18,1.18,0,0,1,.33-.3.76.76,0,0,0,.3-.34,1.94,1.94,0,0,1,.52-.51c0-.2.53-.58.68-.7a1.43,1.43,0,0,0,.2-.14c0-.07,0-.14.06-.2s.34-.15.45-.27,0-.12.06-.17.12,0,.15,0a.77.77,0,0,0,.18-.18.72.72,0,0,1,.11-.15.58.58,0,0,1,.15-.11c.11-.08.21-.15.19-.3h.11c.08-.17.34-.31.46-.45s0-.1,0-.13.08,0,.1,0,.15-.1.2-.15a2,2,0,0,0,.36-.34s.13-.09.16-.13,0-.2.07-.26.18,0,.26-.15,0-.15.09-.23.2-.05.29-.1.16-.18.25-.24l.23-.15c.08-.08.12-.16.23-.2s.27-.28.35-.38.5-.32.49-.5a2.28,2.28,0,0,0,.48-.39s.1-.16.15-.22.16-.08.13-.25c.23-.16.44-.08.45-.45.13,0,.09-.12.17-.19s.16,0,.24-.1.22-.22.35-.3.45-.28.53-.48a1.23,1.23,0,0,1,.14-.31c.1-.14.15-.12.17-.32a.45.45,0,0,0,.42-.19c.1-.1.21-.28.37-.26,0-.13.19-.14.26-.24s0-.13,0-.19a.7.7,0,0,1,.17-.13,5.34,5.34,0,0,0,.66-.59,3.55,3.55,0,0,1,.64-.52c.15-.1.12-.07.11-.24l0,0h0c-.1,0,0-.06,0-.09,0-.32.08.08,0,.07.3-.21-.12.07.08-.22s0,.08.23-.34-.1-.65-.33-.6l-.09.1c0-.05-.26.45-.15,0-.2.1-.21.06-.19,0a1,1,0,0,1-.09.13l0,0a.24.24,0,0,0,.12,0c.07,0,.12-.07.08,0a.11.11,0,0,1-.08,0c-.11.07-.27.17-.19.11l.07-.11c-.09,0-.19,0-.25,0s-.09.09,0,0c-.1.09-.23.11-.28.24a.53.53,0,0,0-.36.17c-.07.09,0,.21-.11.3l-.22.11c-.14.1-.29.24-.4.33a3,3,0,0,1-.47.4c0,.16-.13.08-.2.17s0,.11-.06.16a.74.74,0,0,1-.27.26c-.07.06-.08.13-.15.19s-.15.06-.22.12-.07.18-.13.24-.13,0-.17.09a1.14,1.14,0,0,1-.3.32,5.73,5.73,0,0,0-.45.39,3,3,0,0,0-.74.68l-.18.28a2.72,2.72,0,0,1-.16.25c-.1.1-.23.14-.33.24a1.13,1.13,0,0,1-.27.22c0,.15-.57.57-.7.62,0,.32-.62.36-.59.72-.15,0-.19.07-.28.15a2.4,2.4,0,0,1-.38.27,1.24,1.24,0,0,0-.55.77s-.12,0-.17,0a1.87,1.87,0,0,1-.3.33,1.64,1.64,0,0,1-.4.29c0,.15-.1.12-.18.2l-.14.11s0,.1,0,.13a2.19,2.19,0,0,1-.25.2s-.07.14-.13.18-.21.14-.37.18c0,.26-.6.48-.7.7s0,.14-.05.2-.11,0-.15,0a.58.58,0,0,0-.18.17c0,.06,0,.13-.05.2s-.16,0-.19.08a.8.8,0,0,0-.22.23c-.18.24-.49.33-.5.63-.09,0-.11.08-.18.14s0,.09-.06.11-.1,0-.13,0a2.49,2.49,0,0,1-.5.35c0,.12-.06.12-.08.2s0,.2-.06.21a1.26,1.26,0,0,1-.31.3,2.24,2.24,0,0,0-.42.45,1.35,1.35,0,0,1-.15.26c-.06.06-.15.06-.2.12s-.08.16-.14.24a1.14,1.14,0,0,1-.23.15c0,.34-.38.57-.6.8s-.2.3-.3.41-.2.14-.3.25a2.57,2.57,0,0,0-.34.39s0,.1,0,.14-.12,0-.14.09,0,.19-.08.28-.11.05-.14.08,0,.1,0,.14-.14.11-.19.25a5.48,5.48,0,0,0,0,.7c-.19,0-.47,0-.43.28-.17,0-.35,0-.42.17a1.26,1.26,0,0,0,.15.66c.12.15.46.15.63.1s.28-.39.32-.66a.93.93,0,0,0,.48-.17,1,1,0,0,0,.09-.34c.13,0,.14-.15.22-.22s.17-.08.23-.14,0-.12,0-.16.26-.14.23-.33c.1,0,.14-.11.21-.18l.23-.2a1.82,1.82,0,0,0,.36-.42l.17-.25s.1,0,.13-.08,0-.1,0-.14.23-.1.22-.26,0-.1.08-.19a1.06,1.06,0,0,0,.17-.2,2.58,2.58,0,0,0,.37-.19C42.36,182.73,42.51,182.72,42.63,182.54Z"></path><path id="パス_11" data-name="パス 11" class="cls-1" d="M56.26,169v.09h0C56.3,169,56.29,169,56.26,169Z"></path><path id="パス_12" data-name="パス 12" class="cls-1" d="M55.47,168.24h0S55.53,168.19,55.47,168.24Z"></path><path id="パス_13" data-name="パス 13" class="cls-1" d="M59.24,168.42h0c0-.24,0-.47,0-.7h-.06c0-.13,0-.26-.08-.38h0a.45.45,0,0,0,0-.11h.06c0-.17-.1-.25-.08-.38h.05A1.76,1.76,0,0,0,59,166c0-.18,0-.36,0-.54h0v-.28l.06-.34c0-.12,0-.25,0-.38s-.09-.24-.14-.5a2,2,0,0,0-.3-.66c-.1-.13-.3-.35-.3-.35l-.23.09-.13.25v.29l0,.26v.46l-.1.29,0,.25.05.33-.13.2a.64.64,0,0,0-.1.26v.13l.19.28a.15.15,0,0,0,0,.21.44.44,0,0,0,.23.15l-.1.6c0,.19,0,.37.05.54a5.68,5.68,0,0,1,.16,1.42h-.06c0,.25,0,.51,0,.77l-.11.06c0,.44,0,.87,0,1.31a3.8,3.8,0,0,0,0,.89c0,.18,0,.36,0,.54s.1.8,0,1.09h0c0,.09,0,.18,0,.27H58l.06.77h0c0,.11,0,.22,0,.33h0v.71H57.9c0,.05,0,.11,0,.17h0c0,.15,0,.3,0,.44h-.06l0,.33h-.06v.55h-.06a1.49,1.49,0,0,0,0,.21h-.06a1,1,0,0,1,0,.17h0a.77.77,0,0,0,.07.16h-.06a.81.81,0,0,1,0,.16h0c0,.2,0,.4,0,.61h-.05v.1h0a.81.81,0,0,0,0,.16h0c0,.1,0,.18,0,.28h0s0,.08,0,.11h-.06l0,.38h0c0,.06,0,.11,0,.17h-.06c0,.09,0,.18,0,.27h-.05a.41.41,0,0,0,0,.11h-.06c0,.06,0,.14,0,.21h-.06l0,.38h-.05a.45.45,0,0,0,0,.11h-.06a2.65,2.65,0,0,1,0,.27H57l0,.27H57l0,.38H57a1,1,0,0,0,0,.17h-.06c0,.1,0,.18,0,.27l-.11.06c0,.19-.05.37-.07.56h-.06s0,.07,0,.11h0c0,.33-.07.66-.1,1h0v.11h-.06l0,.32-.11.07c0,.16,0,.33,0,.5h-.05c0,.05,0,.11,0,.16h-.06c0,.15,0,.3,0,.44h0c0,.2,0,.4,0,.6h-.06s0,.07,0,.1a.06.06,0,0,1-.06,0l0,.39h0a.86.86,0,0,0,0,.16H56l-.06.67-.1.06a2.45,2.45,0,0,0,0,.27h-.06c0,.17,0,.33,0,.5l-.16.12s0,.07,0,.11h-.06a.92.92,0,0,1,0,.16h0s0,.07,0,.11h-.06a.92.92,0,0,1,0,.16h0c0,.2,0,.4,0,.6h0v0l-.06,0s0,0,0,.05l-.1,0,0,.06-.16.07V190l-.34.17v.12l-.1,0s0,0,0,.05c-.15.07-.3.14-.44.22v.12l-.15.08,0,0-.1.05,0,.05-.35.17v0l-.25.16s0,0,0-.05l-.11.06s0,0,0,0l-.43.27a2.76,2.76,0,0,0-.65.36l0,0a.31.31,0,0,1-.1.05.08.08,0,0,1,0-.05l-.45.22-.62.68a1.69,1.69,0,0,1-.29.17,8.5,8.5,0,0,1-1.19.35l-.79.41-.1-.06-.33.2-.11-.07-.33.21,0-.05-.1.06,0,0-.33.2-.18-.08-.28.17,0,0-.19.11-.11-.06-.28.17-.1-.06-.42.26,0,0-.46.21,0,0-.09,0,0,0-.33.2,0,0-.22.07a.13.13,0,0,0,0-.05l-.18.12-.11-.07-.23.15,0-.05-.09.06a.1.1,0,0,1,0,0l-.23.15-.18-.08-.27.1s0,0,0-.05l-.09.06-.11-.07c-.13,0-.2.14-.36.16l-.1-.06a2.61,2.61,0,0,1-.28.17c0,.14,0,.27,0,.4l-.14.08c-.06.14.06.3.17.48h.2a.05.05,0,0,1,0,0l.27-.1.34.12.14-.09.1.07.18-.12.11.06.27-.1.18.09.6-.3,0,0a.21.21,0,0,0,.1-.06l0,0,.15-.09.18.09.5-.25s0,0,0,.05l.09-.06,0,0,.61-.38,0,0,.4-.18.11.06.19-.12.11.07.46-.29s0,0,0,0l.22-.07,0,0,.38-.23,0,.05.14-.09,0,0,.19-.11.18.08.38-.23,0,0,.14-.08a.08.08,0,0,1,0,0,.21.21,0,0,0,.1-.06l0,0,.33-.2,0,.05,1.32-.81,0,0,.67-.47h0l0,0,.17-.1v0l.25-.12,0,0,.62-.33h0a.41.41,0,0,1,.11-.07l.32-.17,0,0,.24-.15s0,0,0,0l1.66-1.08,0,0,.78-.54c.26-.28,0-.05-.06-.11s.11-.13.17-.2l.1-.06c0-.06,0-.11,0-.17l.1-.06v-.11h.06c0-.06,0-.14,0-.21l.11-.07,0-.38c0-.07-.09,0-.06,0l.1-.07s0-.07,0-.11h0a2,2,0,0,0,0-.22h.06a.38.38,0,0,0,0-.1H57c0-.07,0-.14,0-.21H57l0-.22h.06a1,1,0,0,0,0-.17h.06c0-.16,0-.32,0-.49h.06s0-.07,0-.1a.06.06,0,0,1,.06,0l0-.39h0a1.7,1.7,0,0,0,0-.22h.06l0-.38h.05v-.11h0c0-.11,0-.21,0-.33h.05a.41.41,0,0,0,0-.11h.06c0-.19,0-.37,0-.55l.1-.06c0-.18,0-.37,0-.55h.06c0-.12,0-.25,0-.38l.11-.07c0-.06,0-.14,0-.21h.06c0-.1,0-.19,0-.28h.06v-.6h.06c0-.12,0-.25,0-.38h.06c0-.08,0-.15,0-.22h.06c0-.11.06-.23.08-.34h.06c0-.05,0-.11,0-.16h0a.45.45,0,0,0,0-.11h.06l0-.44h0s0-.11,0-.16h.06c0-.11,0-.22,0-.32h0a2.64,2.64,0,0,0,0-.28h.06c0-.07,0-.14,0-.22h.06l0-.32a.41.41,0,0,1,.11-.07v-.11h.05l0-.38h.06a1.7,1.7,0,0,1,0-.22h.05a2.64,2.64,0,0,1,0-.28h.05v-.11h0c0-.15,0-.29,0-.44h.06s0-.08,0-.11h.06a1.49,1.49,0,0,1,0-.21h.05l0-.44h0c0-.06,0-.14,0-.21h0a.92.92,0,0,0,0-.16h.06l0-.38h0c0-.11,0-.22,0-.33h.06v-.66l.1-.06c0-.07,0-.15,0-.21h0c0-.09,0-.18,0-.27h.06c0-.29,0-.58,0-.87a0,0,0,0,1,0,0c0-.11,0-.22,0-.34h0c0-.16,0-.33,0-.5h.06c0-.27,0-.54,0-.82,0,0-.08,0-.06-.1h0l0-1.1h.06c0-.37,0-.73,0-1.1h0s0,0,0-.06h.05c0-.21,0-.43,0-.66h0a.74.74,0,0,1,0-.39h.06c0-.22,0-.43-.05-.66h.05l0-.44h0C59.35,168.61,59.24,168.43,59.24,168.42Z"></path><path id="パス_14" data-name="パス 14" class="cls-1" d="M40.43,160.72h.17l.22.32h.33l.06-.11c.14-.06.27,0,.39-.05a1.17,1.17,0,0,0,0-.11h.12a0,0,0,0,1,0-.05l.27-.05.12-.17h.27a0,0,0,0,0,0-.05h.12v0h.27a.24.24,0,0,0,.06-.11h.23v0l.22-.05v-.06h.38v-.06h.11v0l.5-.05v-.05h.5l.06-.11h.33s0-.08.06-.11h.22v-.05h.34a1.63,1.63,0,0,1,.11-.17h.39v0h.11v-.05h.39l.06-.11h.39l0-.1.89,0c.48-.12,1.17,0,1.73,0s1.48-.05,2-.2h.5v0h.11v-.06H53v-.05l1.28.07v0h.38v.06h.12V159h.16l.06.11h.5v0h.11a.54.54,0,0,0,0,.11h.39l.05.11h.17v.06h.11v.05h.17v.06h.11l.27.39h.39a.46.46,0,0,0,.11.27c.29,0,.21,0,.39-.11,0-.27,0-.38-.22-.43a1.15,1.15,0,0,0-.1-.55l-.17-.11v-.17l-.1-.05a.21.21,0,0,1,0-.11l-.17-.11v-.06H57l-.22-.27h-.11a6.75,6.75,0,0,0-1.38-.45l-1-.07v-.05l-2-.08a.06.06,0,0,1,0,.06H52v.06h-.5v0h-.17v.05h-.44v.06h-.56v0l-.83-.06v.05H48v.05h-.39V158h-.11v.06H47.3v.06h-.45l-.11.16h-.22v.06h-.17v.06h-.44v.05l-.22,0v.05h-.55a.41.41,0,0,0-.06.11h-.23l-.05.1-.44,0a.06.06,0,0,0,0,.06h-.73v.05h-.11V159L43,159l-.11.16h-.16v.05h-.12v.05l-.66,0a1.63,1.63,0,0,0-.11.17l-.28,0-.06.1h-.22l-.06.11H41c-.07.1-.15.19-.22.28l-.28.05v0l-.17.11C40.32,160.44,40.31,160.63,40.43,160.72Z"></path></g></g><g id="logo1"><g id="グループ_182" data-name="グループ 182"><path id="パス_15" data-name="パス 15" d="M103.14,0c-36.23,0-65.7,31-65.7,69.13s29.47,69.13,65.7,69.13,65.7-31,65.7-69.13S139.36,0,103.14,0Zm0,134.66C68.9,134.66,41,105.27,41,69.13S68.89,3.61,103.14,3.61s62.1,29.39,62.1,65.52S137.37,134.66,103.14,134.66Z"></path><path id="パス_16" data-name="パス 16" d="M193.88,51.43a161.47,161.47,0,0,0-13-13.79,143.28,143.28,0,0,0-16.1-13.06,72.33,72.33,0,0,1,0,88,142.18,142.18,0,0,0,16.1-13.06,161.08,161.08,0,0,0,13-13.77,146.16,146.16,0,0,0,12.41-17.16A143.4,143.4,0,0,0,193.88,51.43Z"></path><path id="パス_17" data-name="パス 17" d="M41.77,24.21c-1.11.77-2.24,1.56-3.36,2.4a143.35,143.35,0,0,0-13,10.87,160.47,160.47,0,0,0-13,13.84A144.38,144.38,0,0,0,0,68.57,144.89,144.89,0,0,0,12.4,85.8a160.85,160.85,0,0,0,13,13.86,142.24,142.24,0,0,0,13,10.87c1.1.84,2.22,1.63,3.34,2.39a72.42,72.42,0,0,1,0-88.71Z"></path><path id="パス_18" data-name="パス 18" d="M109.27,22a78.54,78.54,0,0,0-2-7.89,57.33,57.33,0,0,0-2.34-6.51c-.14-.34-.3-.69-.45-1l-.06-.15-.1-.2-.39-.57-.79-1.14-.88,1.23-.32.48-.09.2-.07.16c-.15.33-.31.68-.45,1A57.49,57.49,0,0,0,99,14.07,76.34,76.34,0,0,0,97,22a87.13,87.13,0,0,0-1.15,31.13l0,.37a83.51,83.51,0,0,0,2.84,15.76,44.55,44.55,0,0,1,1.6,15.58,47.49,47.49,0,0,1-2,9,64.34,64.34,0,0,0-1.68,6.7,32.42,32.42,0,0,0-.4,7.93,69.4,69.4,0,0,0,.79,7.88,52.26,52.26,0,0,0,4.2,14.42c.16.35.33.69.5,1l.07.14.1.22.14.24.28.43.73,1,0,0,0,0,.82-1.08.22-.37.13-.24a2,2,0,0,0,.1-.21l.08-.15c.17-.34.33-.68.5-1a52.6,52.6,0,0,0,4.2-14.42,72.19,72.19,0,0,0,.79-7.89,32.31,32.31,0,0,0-.4-7.92,66.72,66.72,0,0,0-1.67-6.69,46.68,46.68,0,0,1-2-9,44.86,44.86,0,0,1,1.59-15.59,84.34,84.34,0,0,0,2.85-15.76l0-.39a103.65,103.65,0,0,0,.84-15.35A103.07,103.07,0,0,0,109.27,22Z"></path></g></g></g></g></g></symbol>
</svg>
